<svg viewBox="106.05 31.05 19.95 25.15" xmlns="http://www.w3.org/2000/svg"><g data-vid="casa_zocodover" data-part="tall" data-label="casa"><polygon points="110.3,42.3 125,42.3 125,55 110.3,55" fill="#000000" opacity="0.12"/><polygon points="108.25,49 114.25,49 116,54 110,54" fill="#cfc0a2"/><polygon points="117.25,49 122.25,49 124,54 119,54" fill="#cfc0a2"/><polygon points="122.25,37 122.25,49 124,54 124,42" fill="#a3977e"/><line x1="112.11" y1="52.87" x2="111.55" y2="51.27" stroke="#8a7f68" stroke-width="0.22"/><line x1="110.41" y1="51.23" x2="109.85" y2="49.63" stroke="#8a7f68" stroke-width="0.22"/><line x1="109.13" y1="51.5" x2="123.13" y2="51.5" stroke="#8a7f68" stroke-width="0.22"/><polygon points="114.6,50 117.6,50 119,54 116,54" fill="#5c4326"/><polygon points="115.36,53.6 119.36,53.6 119.36,55.2 115.36,55.2" fill="#8f887a"/><polygon points="113.94,32.05 113.94,46.45 107.05,50.2 107.05,35.8" fill="#96522f"/><polygon points="108.25,49 122.25,49 113.94,45.25" fill="#cfc0a2"/><polygon points="113.94,32.05 113.94,46.45 123.45,50.2 123.45,35.8" fill="#96522f"/><line x1="113.94" y1="32.05" x2="113.94" y2="46.45" stroke="#7e3020" stroke-width="0.6"/></g></svg>