<svg viewBox="12.74 62.8 19.26 19.2" xmlns="http://www.w3.org/2000/svg"><g data-vid="casa_calle_s" data-part="tall" data-label="casa"><polygon points="18.3,70.3 31,70.3 31,81 18.3,81" fill="#000000" opacity="0.12"/><polygon points="16.25,75 28.25,75 30,80 18,80" fill="#b3a68e"/><polygon points="28.25,65 28.25,75 30,80 30,70" fill="#5f5a50"/><line x1="26.39" y1="78.01" x2="25.83" y2="76.41" stroke="#514c43" stroke-width="0.22"/><line x1="23.27" y1="77.41" x2="22.71" y2="75.81" stroke="#514c43" stroke-width="0.22"/><line x1="17.13" y1="77.5" x2="29.13" y2="77.5" stroke="#514c43" stroke-width="0.22"/><polygon points="21.44,76.4 24.04,76.4 24.78,78.5 22.18,78.5" fill="#2b2620"/><polygon points="21.93,76.8 23.83,76.8 24.29,78.1 22.39,78.1" fill="#efb95a" opacity="0.85"/><polygon points="13.74,66.25 28.14,66.25 29.45,63.8 15.05,63.8" fill="#96522f"/><polygon points="28.25,65 28.25,75 26.94,66.25" fill="#5f5a50"/><polygon points="13.74,66.25 28.14,66.25 29.45,76.2 15.05,76.2" fill="#96522f"/><line x1="14.07" y1="68.74" x2="28.47" y2="68.74" stroke="#7e3020" stroke-width="0.35"/><line x1="14.39" y1="71.22" x2="28.79" y2="71.22" stroke="#7e3020" stroke-width="0.35"/><line x1="14.72" y1="73.71" x2="29.12" y2="73.71" stroke="#7e3020" stroke-width="0.35"/><line x1="13.74" y1="66.25" x2="28.14" y2="66.25" stroke="#7e3020" stroke-width="0.6"/></g></svg>