<svg viewBox="76.74 66.8 19.26 19.2" xmlns="http://www.w3.org/2000/svg"><g data-vid="casa_adarve" data-part="tall" data-label="casa"><polygon points="82.3,74.3 95,74.3 95,85 82.3,85" fill="#000000" opacity="0.12"/><polygon points="80.25,79 92.25,79 94,84 82,84" fill="#c9b89a"/><polygon points="92.25,69 92.25,79 94,84 94,74" fill="#a3977e"/><line x1="91.81" y1="82.47" x2="91.25" y2="80.87" stroke="#8a7f68" stroke-width="0.22"/><line x1="84.79" y1="82.15" x2="84.23" y2="80.55" stroke="#8a7f68" stroke-width="0.22"/><line x1="81.13" y1="81.5" x2="93.13" y2="81.5" stroke="#8a7f68" stroke-width="0.22"/><polygon points="85.44,80.4 88.04,80.4 88.77,82.5 86.17,82.5" fill="#2b2620"/><polygon points="85.93,80.8 87.83,80.8 88.28,82.1 86.38,82.1" fill="#efb95a" opacity="0.85"/><polygon points="77.74,70.25 92.14,70.25 93.45,67.8 79.05,67.8" fill="#a05a38"/><polygon points="92.25,69 92.25,79 90.94,70.25" fill="#a3977e"/><polygon points="77.74,70.25 92.14,70.25 93.45,80.2 79.05,80.2" fill="#a05a38"/><line x1="78.07" y1="72.74" x2="92.47" y2="72.74" stroke="#7e3020" stroke-width="0.35"/><line x1="78.39" y1="75.22" x2="92.79" y2="75.22" stroke="#7e3020" stroke-width="0.35"/><line x1="78.72" y1="77.71" x2="93.12" y2="77.71" stroke="#7e3020" stroke-width="0.35"/><line x1="77.74" y1="70.25" x2="92.14" y2="70.25" stroke="#7e3020" stroke-width="0.6"/></g></svg>