<svg viewBox="64.74 22.8 21.26 19.4" xmlns="http://www.w3.org/2000/svg"><g data-vid="casa_calle_n" data-part="tall" data-label="casa"><polygon points="70.3,30.3 85,30.3 85,41 70.3,41" fill="#000000" opacity="0.12"/><polygon points="68.25,35 74.25,35 76,40 70,40" fill="#cfc0a2"/><polygon points="77.25,35 82.25,35 84,40 79,40" fill="#cfc0a2"/><polygon points="82.25,25 82.25,35 84,40 84,30" fill="#a3977e"/><line x1="78.85" y1="38.14" x2="78.29" y2="36.54" stroke="#8a7f68" stroke-width="0.22"/><line x1="72.74" y1="38.59" x2="72.18" y2="36.99" stroke="#8a7f68" stroke-width="0.22"/><line x1="69.13" y1="37.5" x2="83.13" y2="37.5" stroke="#8a7f68" stroke-width="0.22"/><polygon points="74.6,36 77.6,36 79,40 76,40" fill="#5c4326"/><polygon points="75.36,39.6 79.36,39.6 79.36,41.2 75.36,41.2" fill="#8f887a"/><polygon points="65.74,26.25 82.14,26.25 83.45,23.8 67.05,23.8" fill="#a05a38"/><polygon points="82.25,25 82.25,35 80.94,26.25" fill="#a3977e"/><polygon points="65.74,26.25 82.14,26.25 83.45,36.2 67.05,36.2" fill="#a05a38"/><line x1="66.07" y1="28.74" x2="82.47" y2="28.74" stroke="#7e3020" stroke-width="0.35"/><line x1="66.39" y1="31.23" x2="82.79" y2="31.23" stroke="#7e3020" stroke-width="0.35"/><line x1="66.72" y1="33.71" x2="83.12" y2="33.71" stroke="#7e3020" stroke-width="0.35"/><line x1="65.74" y1="26.25" x2="82.14" y2="26.25" stroke="#7e3020" stroke-width="0.6"/></g></svg>