<svg viewBox="50.74 63.05 19.26 22.95" xmlns="http://www.w3.org/2000/svg"><g data-vid="horno_barrio" data-part="tall" data-label="horno"><polygon points="56.3,74.3 69,74.3 69,85 56.3,85" fill="#000000" opacity="0.12"/><polygon points="54.25,79 66.25,79 68,84 56,84" fill="#c9b89a"/><polygon points="66.25,69 66.25,79 68,84 68,74" fill="#a3977e"/><line x1="56.38" y1="82.15" x2="55.82" y2="80.55" stroke="#8a7f68" stroke-width="0.22"/><line x1="55.96" y1="81.06" x2="55.4" y2="79.46" stroke="#8a7f68" stroke-width="0.22"/><line x1="55.13" y1="81.5" x2="67.13" y2="81.5" stroke="#8a7f68" stroke-width="0.22"/><polygon points="59.44,80.4 62.04,80.4 62.78,82.5 60.18,82.5" fill="#2b2620"/><polygon points="59.93,80.8 61.83,80.8 62.29,82.1 60.39,82.1" fill="#efb95a" opacity="0.85"/><polygon points="51.74,64.05 66.14,64.05 67.45,80.2 53.05,80.2" fill="#9a5b3c"/><line x1="53.05" y1="80.2" x2="67.45" y2="80.2" stroke="#7e3020" stroke-width="0.5"/></g></svg>