<svg viewBox="95.3 45.52 10.8 27.38" xmlns="http://www.w3.org/2000/svg"><g data-vid="puerta_adarve" data-part="tall" data-label="arco del adarve"><polygon points="100.1,57.3 105.1,57.3 105.1,71.9 100.1,71.9" fill="#000000" opacity="0.12"/><polygon points="96.3,61 100.7,61 104.2,71 99.8,71" fill="#767162"/><polygon points="100.7,61 100.7,47 104.2,57 104.2,71" fill="#5f5a50"/><polygon points="96.3,47 100.7,47 100.7,61 96.3,61" fill="#8b8678"/><line x1="96.3" y1="61" x2="100.7" y2="61" stroke="#9a958a" stroke-width="0.3"/><polygon points="100.14,46.52 100.14,48.34 100.7,49.94 100.7,48.12" fill="#96917f"/><polygon points="100.14,49.88 100.14,51.7 100.7,53.3 100.7,51.48" fill="#96917f"/><polygon points="100.14,53.24 100.14,55.06 100.7,56.66 100.7,54.84" fill="#96917f"/><polygon points="100.14,56.6 100.14,58.42 100.7,60.02 100.7,58.2" fill="#96917f"/><polygon points="102.17,54.2 102.17,62.2 104.2,68 104.2,60" fill="#211d17"/><ellipse cx="102.17" cy="58.2" rx="4" ry="3.2" fill="#211d17" transform="rotate(90 102.17 58.2)"/><line x1="104.2" y1="60" x2="104.2" y2="68" stroke="#8a7650" stroke-width="1.2" opacity="0.5"/><path d="M95.02,53.52 L96.92,53.52 L96.92,57.52 L95.97,56.62 L95.02,57.52 Z" fill="#a03028"/><circle cx="95.97" cy="54.72" r="0.42" fill="#c9a24b"/><path d="M107.42,53.52 L109.32,53.52 L109.32,57.52 L108.37,56.62 L107.42,57.52 Z" fill="#a03028"/><circle cx="108.37" cy="54.72" r="0.42" fill="#c9a24b"/></g></svg>