<svg viewBox="-2.4 81.1 15.03 9.7" xmlns="http://www.w3.org/2000/svg"><g data-vid="tapia_huerto_n" data-part="tall" data-label="tapia"><polygon points="0,89 11.33,89 11.63,89.8 0.3,89.8" fill="#000000" opacity="0.14"/><polygon points="-1.4,85 9.93,85 11.33,89 0,89" fill="#767162"/><line x1="2.36" y1="88.13" x2="1.8" y2="86.53" stroke="#514c43" stroke-width="0.22"/><line x1="1.52" y1="87.55" x2="0.96" y2="85.95" stroke="#514c43" stroke-width="0.22"/><line x1="-0.7" y1="87" x2="10.63" y2="87" stroke="#514c43" stroke-width="0.22"/><polygon points="-1.4,83 9.93,83 9.93,85 -1.4,85" fill="#8b8678"/><polygon points="-1.03,83.2 1.17,83.2 1.8,85 -0.4,85" fill="#96917f"/><polygon points="-1.03,82.1 1.17,82.1 1.17,83.2 -1.03,83.2" fill="#96917f"/><polygon points="3.37,83.2 5.57,83.2 6.2,85 4,85" fill="#96917f"/><polygon points="3.37,82.1 5.57,82.1 5.57,83.2 3.37,83.2" fill="#96917f"/></g></svg>