<svg viewBox="20.27 81.1 15.03 9.7" xmlns="http://www.w3.org/2000/svg"><g data-vid="tapia_huerto_n" data-part="tall" data-label="tapia"><polygon points="22.67,89 34,89 34.3,89.8 22.97,89.8" fill="#000000" opacity="0.14"/><polygon points="21.27,85 32.6,85 34,89 22.67,89" fill="#767162"/><line x1="27.19" y1="87.89" x2="26.63" y2="86.29" stroke="#514c43" stroke-width="0.22"/><line x1="29.06" y1="87.04" x2="28.5" y2="85.44" stroke="#514c43" stroke-width="0.22"/><line x1="21.97" y1="87" x2="33.3" y2="87" stroke="#514c43" stroke-width="0.22"/><polygon points="21.27,83 32.6,83 32.6,85 21.27,85" fill="#8b8678"/><polygon points="21.64,83.2 23.84,83.2 24.47,85 22.27,85" fill="#96917f"/><polygon points="21.64,82.1 23.84,82.1 23.84,83.2 21.64,83.2" fill="#96917f"/><polygon points="26.04,83.2 28.24,83.2 28.87,85 26.67,85" fill="#96917f"/><polygon points="26.04,82.1 28.24,82.1 28.24,83.2 26.04,83.2" fill="#96917f"/></g></svg>