<svg viewBox="8.93 81.1 15.03 9.7" xmlns="http://www.w3.org/2000/svg"><g data-vid="tapia_huerto_n" data-part="tall" data-label="tapia"><polygon points="11.33,89 22.67,89 22.97,89.8 11.63,89.8" fill="#000000" opacity="0.14"/><polygon points="9.93,85 21.27,85 22.67,89 11.33,89" fill="#767162"/><line x1="13" y1="87.51" x2="12.44" y2="85.91" stroke="#514c43" stroke-width="0.22"/><line x1="14.32" y1="87.45" x2="13.76" y2="85.85" stroke="#514c43" stroke-width="0.22"/><line x1="10.63" y1="87" x2="21.97" y2="87" stroke="#514c43" stroke-width="0.22"/><polygon points="9.93,83 21.27,83 21.27,85 9.93,85" fill="#8b8678"/><polygon points="10.3,83.2 12.5,83.2 13.13,85 10.93,85" fill="#96917f"/><polygon points="10.3,82.1 12.5,82.1 12.5,83.2 10.3,83.2" fill="#96917f"/><polygon points="14.7,83.2 16.9,83.2 17.53,85 15.33,85" fill="#96917f"/><polygon points="14.7,82.1 16.9,82.1 16.9,83.2 14.7,83.2" fill="#96917f"/></g></svg>