<svg viewBox="90.45 14 20.15 28.5" xmlns="http://www.w3.org/2000/svg"><g data-vid="torre_adarve" data-part="tall" data-label="torre"><ellipse cx="102.6" cy="34.5" rx="7" ry="7" fill="#000000" opacity="0.14"/><polygon points="103.11,19.02 103.45,20.86 108,33.86 107.66,32.02" fill="#5f5a50"/><polygon points="103.45,20.86 103.2,22.73 107.75,35.73 108,33.86" fill="#5f5a50"/><polygon points="103.2,22.73 102.38,24.42 106.93,37.42 107.75,35.73" fill="#5f5a50"/><polygon points="102.38,24.42 101.09,25.77 105.64,38.77 106.93,37.42" fill="#767162"/><polygon points="101.09,25.77 99.43,26.66 103.98,39.66 105.64,38.77" fill="#767162"/><polygon points="99.43,26.66 97.59,27 102.14,40 103.98,39.66" fill="#767162"/><polygon points="97.59,27 95.72,26.75 100.27,39.75 102.14,40" fill="#767162"/><polygon points="95.72,26.75 94.03,25.93 98.58,38.93 100.27,39.75" fill="#767162"/><polygon points="94.03,25.93 92.68,24.64 97.23,37.64 98.58,38.93" fill="#767162"/><polygon points="92.68,24.64 91.79,22.98 96.34,35.98 97.23,37.64" fill="#767162"/><ellipse cx="97.45" cy="21" rx="6" ry="6" fill="#8b8678"/><ellipse cx="97.45" cy="21" rx="6" ry="6" fill="#57524a"/><ellipse cx="97.45" cy="21" rx="5.4" ry="5.4" fill="none" stroke="#a5a08f" stroke-width="1.68" stroke-dasharray="2.1 1.5"/><ellipse cx="97.45" cy="21" rx="4.44" ry="4.44" fill="#8b8678"/><ellipse cx="97.45" cy="21" rx="3.72" ry="3.72" fill="#7d7869"/><rect x="94.93" y="24" width="0.8" height="2.4" fill="#26221c"/><rect x="99.13" y="25" width="0.8" height="2.4" fill="#26221c"/></g></svg>