<svg viewBox="73.7 -2.2 50.3 34.2" xmlns="http://www.w3.org/2000/svg"><g data-vid="bloque_e" data-part="tall" data-label="bloque de viviendas"><polygon points="78.3,6.3 123,6.3 123,31 78.3,31" fill="#000000" opacity="0.12"/><polygon points="75.9,24 119.9,24 122,30 78,30" fill="#8a8d92"/><polygon points="119.9,0 119.9,24 122,30 122,6" fill="#a3977e"/><line x1="100.75" y1="26.72" x2="100.19" y2="25.12" stroke="#8a7f68" stroke-width="0.22"/><line x1="104.61" y1="29.12" x2="104.05" y2="27.52" stroke="#8a7f68" stroke-width="0.22"/><line x1="102.13" y1="28.86" x2="101.57" y2="27.26" stroke="#8a7f68" stroke-width="0.22"/><line x1="82.41" y1="26.23" x2="81.85" y2="24.63" stroke="#8a7f68" stroke-width="0.22"/><line x1="112.09" y1="28.86" x2="111.53" y2="27.26" stroke="#8a7f68" stroke-width="0.22"/><line x1="89.25" y1="28.63" x2="88.69" y2="27.03" stroke="#8a7f68" stroke-width="0.22"/><line x1="88.05" y1="27.93" x2="87.49" y2="26.33" stroke="#8a7f68" stroke-width="0.22"/><line x1="103.56" y1="29.19" x2="103" y2="27.59" stroke="#8a7f68" stroke-width="0.22"/><line x1="76.95" y1="27" x2="120.95" y2="27" stroke="#8a7f68" stroke-width="0.22"/><polygon points="80.69,25.68 83.29,25.68 84.17,28.2 81.57,28.2" fill="#2b2620"/><polygon points="81.21,26.16 83.11,26.16 83.65,27.72 81.75,27.72" fill="#efb95a" opacity="0.85"/><polygon points="91.69,25.68 94.29,25.68 95.17,28.2 92.57,28.2" fill="#2b2620"/><polygon points="92.21,26.16 94.11,26.16 94.65,27.72 92.75,27.72" fill="#efb95a" opacity="0.85"/><polygon points="102.69,25.68 105.29,25.68 106.17,28.2 103.57,28.2" fill="#2b2620"/><polygon points="103.21,26.16 105.11,26.16 105.65,27.72 103.75,27.72" fill="#efb95a" opacity="0.85"/><polygon points="113.69,25.68 116.29,25.68 117.17,28.2 114.57,28.2" fill="#2b2620"/><polygon points="114.21,26.16 116.11,26.16 116.65,27.72 114.75,27.72" fill="#efb95a" opacity="0.85"/><polygon points="74.7,-1.2 121.1,-1.2 121.1,25.2 74.7,25.2" fill="#b95a3e"/></g></svg>