<svg viewBox="1.7 -2.2 50.3 34.2" xmlns="http://www.w3.org/2000/svg"><g data-vid="bloque_o" data-part="tall" data-label="bloque de viviendas"><polygon points="6.3,6.3 51,6.3 51,31 6.3,31" fill="#000000" opacity="0.12"/><polygon points="3.9,24 47.9,24 50,30 6,30" fill="#8a8d92"/><polygon points="47.9,0 47.9,24 50,30 50,6" fill="#a3977e"/><line x1="22.59" y1="28.8" x2="22.03" y2="27.2" stroke="#8a7f68" stroke-width="0.22"/><line x1="18.47" y1="29.27" x2="17.91" y2="27.67" stroke="#8a7f68" stroke-width="0.22"/><line x1="16.68" y1="28.55" x2="16.12" y2="26.95" stroke="#8a7f68" stroke-width="0.22"/><line x1="10.3" y1="29.59" x2="9.74" y2="27.99" stroke="#8a7f68" stroke-width="0.22"/><line x1="40.92" y1="28.86" x2="40.36" y2="27.26" stroke="#8a7f68" stroke-width="0.22"/><line x1="26.4" y1="28.47" x2="25.84" y2="26.87" stroke="#8a7f68" stroke-width="0.22"/><line x1="28.55" y1="29.34" x2="27.99" y2="27.74" stroke="#8a7f68" stroke-width="0.22"/><line x1="12.95" y1="28.92" x2="12.39" y2="27.32" stroke="#8a7f68" stroke-width="0.22"/><line x1="4.95" y1="27" x2="48.95" y2="27" stroke="#8a7f68" stroke-width="0.22"/><polygon points="8.69,25.68 11.29,25.68 12.17,28.2 9.57,28.2" fill="#2b2620"/><polygon points="9.21,26.16 11.11,26.16 11.65,27.72 9.75,27.72" fill="#efb95a" opacity="0.85"/><polygon points="19.69,25.68 22.29,25.68 23.17,28.2 20.57,28.2" fill="#2b2620"/><polygon points="20.21,26.16 22.11,26.16 22.65,27.72 20.75,27.72" fill="#efb95a" opacity="0.85"/><polygon points="30.69,25.68 33.29,25.68 34.17,28.2 31.57,28.2" fill="#2b2620"/><polygon points="31.21,26.16 33.11,26.16 33.65,27.72 31.75,27.72" fill="#efb95a" opacity="0.85"/><polygon points="41.69,25.68 44.29,25.68 45.17,28.2 42.57,28.2" fill="#2b2620"/><polygon points="42.21,26.16 44.11,26.16 44.65,27.72 42.75,27.72" fill="#efb95a" opacity="0.85"/><polygon points="2.7,-1.2 49.1,-1.2 49.1,25.2 2.7,25.2" fill="#b95a3e"/></g></svg>