<svg viewBox="54.4 38 15.2 25.5" xmlns="http://www.w3.org/2000/svg"><g data-vid="mastil" data-part="tall" data-label="mástil de comunicaciones"><ellipse cx="64.6" cy="58.5" rx="4" ry="4" fill="#000000" opacity="0.14"/><polygon points="61.23,41.01 61.4,41.93 67,57.93 66.83,57.01" fill="#5f5a50"/><polygon points="61.4,41.93 61.27,42.86 66.87,58.86 67,57.93" fill="#5f5a50"/><polygon points="61.27,42.86 60.87,43.71 66.47,59.71 66.87,58.86" fill="#5f5a50"/><polygon points="60.87,43.71 60.22,44.39 65.82,60.39 66.47,59.71" fill="#767162"/><polygon points="60.22,44.39 59.39,44.83 64.99,60.83 65.82,60.39" fill="#767162"/><polygon points="59.39,44.83 58.47,45 64.07,61 64.99,60.83" fill="#767162"/><polygon points="58.47,45 57.54,44.87 63.14,60.87 64.07,61" fill="#767162"/><polygon points="57.54,44.87 56.69,44.47 62.29,60.47 63.14,60.87" fill="#767162"/><polygon points="56.69,44.47 56.01,43.82 61.61,59.82 62.29,60.47" fill="#767162"/><polygon points="56.01,43.82 55.57,42.99 61.17,58.99 61.61,59.82" fill="#767162"/><ellipse cx="58.4" cy="42" rx="3" ry="3" fill="#8b8678"/><ellipse cx="58.4" cy="42" rx="3" ry="3" fill="#57524a"/><ellipse cx="58.4" cy="42" rx="2.7" ry="2.7" fill="none" stroke="#a5a08f" stroke-width="1.1" stroke-dasharray="2.1 1.5"/><ellipse cx="58.4" cy="42" rx="2.22" ry="2.22" fill="#8b8678"/><ellipse cx="58.4" cy="42" rx="1.86" ry="1.86" fill="#7d7869"/><rect x="57.14" y="45" width="0.8" height="2.4" fill="#26221c"/><rect x="59.24" y="46" width="0.8" height="2.4" fill="#26221c"/></g></svg>