<svg viewBox="-12 -32 140 160" xmlns="http://www.w3.org/2000/svg"><defs><clipPath id="tileclip"><rect x="0" y="0" width="128" height="128"/></clipPath></defs><g id="ground" clip-path="url(#tileclip)"><rect x="0" y="0" width="128" height="128" fill="#8a857a"/><ellipse cx="17.78" cy="35.94" rx="8.43" ry="5.45" fill="#959086" opacity="0.38"/><ellipse cx="113.27" cy="14.67" rx="9.81" ry="6.66" fill="#78746a" opacity="0.32"/><ellipse cx="106.38" cy="98.22" rx="10.08" ry="6.66" fill="#959086" opacity="0.33"/><ellipse cx="87.4" cy="73.62" rx="12.25" ry="8.89" fill="#78746a" opacity="0.39"/><ellipse cx="29.22" cy="89.8" rx="11.63" ry="7.32" fill="#959086" opacity="0.35"/><ellipse cx="116.65" cy="99.62" rx="12.95" ry="8.58" fill="#78746a" opacity="0.35"/><ellipse cx="30.04" cy="113.61" rx="13.07" ry="8.24" fill="#959086" opacity="0.45"/><ellipse cx="17.51" cy="9.85" rx="9.42" ry="7.3" fill="#78746a" opacity="0.36"/><ellipse cx="11.17" cy="43.66" rx="8.65" ry="5.36" fill="#959086" opacity="0.37"/><ellipse cx="57.84" cy="66.99" rx="10.82" ry="6.39" fill="#78746a" opacity="0.44"/><ellipse cx="69.12" cy="30.65" rx="1.16" ry="0.81" fill="#8f887a" opacity="0.75"/><ellipse cx="77.06" cy="4.61" rx="0.71" ry="0.5" fill="#7d7869" opacity="0.75"/><ellipse cx="117.4" cy="76.25" rx="0.99" ry="0.69" fill="#8f887a" opacity="0.75"/><ellipse cx="93.95" cy="39.82" rx="1.16" ry="0.81" fill="#7d7869" opacity="0.75"/><ellipse cx="120.17" cy="116.77" rx="1.03" ry="0.72" fill="#8f887a" opacity="0.75"/><ellipse cx="81.88" cy="86.93" rx="1.15" ry="0.81" fill="#7d7869" opacity="0.75"/><g id="ground"><line x1="64" y1="0" x2="64" y2="72" stroke="#726c60" stroke-width="13" stroke-linecap="round"/><line x1="64" y1="0" x2="64" y2="72" stroke="#9c968a" stroke-width="10" stroke-linecap="round"/><line x1="68" y1="64" x2="128" y2="64" stroke="#726c60" stroke-width="11" stroke-linecap="round"/><line x1="68" y1="64" x2="128" y2="64" stroke="#9c968a" stroke-width="8" stroke-linecap="round"/><line x1="64" y1="70" x2="64" y2="128" stroke="#726c60" stroke-width="13" stroke-linecap="round"/><line x1="64" y1="70" x2="64" y2="128" stroke="#9c968a" stroke-width="10" stroke-linecap="round"/><ellipse cx="64" cy="70" rx="40" ry="33" fill="#a29b8b"/><ellipse cx="46" cy="58" rx="4" ry="3" fill="#8f887a" opacity="0.8"/><ellipse cx="58" cy="64" rx="5" ry="3" fill="#b0a999" opacity="0.7"/><ellipse cx="74" cy="60" rx="4" ry="3" fill="#8f887a" opacity="0.8"/><ellipse cx="84" cy="70" rx="5" ry="3" fill="#b0a999" opacity="0.7"/><ellipse cx="50" cy="78" rx="5" ry="3" fill="#8f887a" opacity="0.8"/><ellipse cx="70" cy="82" rx="4" ry="3" fill="#b0a999" opacity="0.7"/><ellipse cx="80" cy="88" rx="5" ry="3" fill="#8f887a" opacity="0.8"/><ellipse cx="56" cy="92" rx="4" ry="3" fill="#b0a999" opacity="0.7"/><ellipse cx="88" cy="78" rx="4" ry="3" fill="#8f887a" opacity="0.75"/><ellipse cx="42" cy="70" rx="4" ry="3" fill="#b0a999" opacity="0.7"/></g><g id="water"/></g><g id="volumes"><g data-vid="bloque_o" data-part="tall" data-label="bloque de viviendas"><polygon points="6.3,6.3 51,6.3 51,31 6.3,31" fill="#000000" opacity="0.12"/><polygon points="3.9,24 47.9,24 50,30 6,30" fill="#8a8d92"/><polygon points="47.9,0 47.9,24 50,30 50,6" fill="#a3977e"/><line x1="22.59" y1="28.8" x2="22.03" y2="27.2" stroke="#8a7f68" stroke-width="0.22"/><line x1="18.47" y1="29.27" x2="17.91" y2="27.67" stroke="#8a7f68" stroke-width="0.22"/><line x1="16.68" y1="28.55" x2="16.12" y2="26.95" stroke="#8a7f68" stroke-width="0.22"/><line x1="10.3" y1="29.59" x2="9.74" y2="27.99" stroke="#8a7f68" stroke-width="0.22"/><line x1="40.92" y1="28.86" x2="40.36" y2="27.26" stroke="#8a7f68" stroke-width="0.22"/><line x1="26.4" y1="28.47" x2="25.84" y2="26.87" stroke="#8a7f68" stroke-width="0.22"/><line x1="28.55" y1="29.34" x2="27.99" y2="27.74" stroke="#8a7f68" stroke-width="0.22"/><line x1="12.95" y1="28.92" x2="12.39" y2="27.32" stroke="#8a7f68" stroke-width="0.22"/><line x1="4.95" y1="27" x2="48.95" y2="27" stroke="#8a7f68" stroke-width="0.22"/><polygon points="8.69,25.68 11.29,25.68 12.17,28.2 9.57,28.2" fill="#2b2620"/><polygon points="9.21,26.16 11.11,26.16 11.65,27.72 9.75,27.72" fill="#efb95a" opacity="0.85"/><polygon points="19.69,25.68 22.29,25.68 23.17,28.2 20.57,28.2" fill="#2b2620"/><polygon points="20.21,26.16 22.11,26.16 22.65,27.72 20.75,27.72" fill="#efb95a" opacity="0.85"/><polygon points="30.69,25.68 33.29,25.68 34.17,28.2 31.57,28.2" fill="#2b2620"/><polygon points="31.21,26.16 33.11,26.16 33.65,27.72 31.75,27.72" fill="#efb95a" opacity="0.85"/><polygon points="41.69,25.68 44.29,25.68 45.17,28.2 42.57,28.2" fill="#2b2620"/><polygon points="42.21,26.16 44.11,26.16 44.65,27.72 42.75,27.72" fill="#efb95a" opacity="0.85"/><polygon points="2.7,-1.2 49.1,-1.2 49.1,25.2 2.7,25.2" fill="#b95a3e"/></g><g data-vid="bloque_e" data-part="tall" data-label="bloque de viviendas"><polygon points="78.3,6.3 123,6.3 123,31 78.3,31" fill="#000000" opacity="0.12"/><polygon points="75.9,24 119.9,24 122,30 78,30" fill="#8a8d92"/><polygon points="119.9,0 119.9,24 122,30 122,6" fill="#a3977e"/><line x1="100.75" y1="26.72" x2="100.19" y2="25.12" stroke="#8a7f68" stroke-width="0.22"/><line x1="104.61" y1="29.12" x2="104.05" y2="27.52" stroke="#8a7f68" stroke-width="0.22"/><line x1="102.13" y1="28.86" x2="101.57" y2="27.26" stroke="#8a7f68" stroke-width="0.22"/><line x1="82.41" y1="26.23" x2="81.85" y2="24.63" stroke="#8a7f68" stroke-width="0.22"/><line x1="112.09" y1="28.86" x2="111.53" y2="27.26" stroke="#8a7f68" stroke-width="0.22"/><line x1="89.25" y1="28.63" x2="88.69" y2="27.03" stroke="#8a7f68" stroke-width="0.22"/><line x1="88.05" y1="27.93" x2="87.49" y2="26.33" stroke="#8a7f68" stroke-width="0.22"/><line x1="103.56" y1="29.19" x2="103" y2="27.59" stroke="#8a7f68" stroke-width="0.22"/><line x1="76.95" y1="27" x2="120.95" y2="27" stroke="#8a7f68" stroke-width="0.22"/><polygon points="80.69,25.68 83.29,25.68 84.17,28.2 81.57,28.2" fill="#2b2620"/><polygon points="81.21,26.16 83.11,26.16 83.65,27.72 81.75,27.72" fill="#efb95a" opacity="0.85"/><polygon points="91.69,25.68 94.29,25.68 95.17,28.2 92.57,28.2" fill="#2b2620"/><polygon points="92.21,26.16 94.11,26.16 94.65,27.72 92.75,27.72" fill="#efb95a" opacity="0.85"/><polygon points="102.69,25.68 105.29,25.68 106.17,28.2 103.57,28.2" fill="#2b2620"/><polygon points="103.21,26.16 105.11,26.16 105.65,27.72 103.75,27.72" fill="#efb95a" opacity="0.85"/><polygon points="113.69,25.68 116.29,25.68 117.17,28.2 114.57,28.2" fill="#2b2620"/><polygon points="114.21,26.16 116.11,26.16 116.65,27.72 114.75,27.72" fill="#efb95a" opacity="0.85"/><polygon points="74.7,-1.2 121.1,-1.2 121.1,25.2 74.7,25.2" fill="#b95a3e"/></g><g data-vid="cantina_filtro" data-label="cantina El Filtro"><polygon points="14.3,54.3 37,54.3 37,81 14.3,81" fill="#000000" opacity="0.12"/><polygon points="14,54 36,54 36,80 14,80" fill="#7c5a36"/><line x1="14" y1="56.2" x2="36" y2="56.2" stroke="#6a4b2b" stroke-width="0.25"/><line x1="14" y1="58.4" x2="36" y2="58.4" stroke="#6a4b2b" stroke-width="0.25"/><line x1="14" y1="60.6" x2="36" y2="60.6" stroke="#6a4b2b" stroke-width="0.25"/><line x1="14" y1="62.8" x2="36" y2="62.8" stroke="#6a4b2b" stroke-width="0.25"/><line x1="14" y1="65" x2="36" y2="65" stroke="#6a4b2b" stroke-width="0.25"/><line x1="14" y1="67.2" x2="36" y2="67.2" stroke="#6a4b2b" stroke-width="0.25"/><line x1="14" y1="69.4" x2="36" y2="69.4" stroke="#6a4b2b" stroke-width="0.25"/><line x1="14" y1="71.6" x2="36" y2="71.6" stroke="#6a4b2b" stroke-width="0.25"/><line x1="14" y1="73.8" x2="36" y2="73.8" stroke="#6a4b2b" stroke-width="0.25"/><line x1="14" y1="76" x2="36" y2="76" stroke="#6a4b2b" stroke-width="0.25"/></g><g data-vid="cantina_filtro" data-part="tall" data-label="cantina El Filtro"><polygon points="12.25,50.2 34.25,50.2 36,55.2 14,55.2" fill="#a3977e"/><polygon points="12.25,49 34.25,49 34.25,50.2 12.25,50.2" fill="#8c8f94"/></g><g data-vid="cantina_filtro" data-part="tall" data-label="cantina El Filtro"><polygon points="13.45,50.2 13.45,75 15.2,80 15.2,55.2" fill="#8c8f94"/><polygon points="12.25,49 13.45,50.2 13.45,75 12.25,75" fill="#8c8f94"/></g><g data-vid="pantalla" data-label="pantalla pública"><polygon points="70.3,56.3 74.9,56.3 74.9,57.9 70.3,57.9" fill="#000000" opacity="0.12"/><polygon points="68.6,53 72.6,53 74,57 70,57" fill="#26333d"/><polygon points="72.6,53 72.6,52 74,56 74,57" fill="#1e2930"/><polygon points="68.6,52 72.6,52 72.6,53 68.6,53" fill="#2b3a45"/><line x1="68.6" y1="53" x2="72.6" y2="53" stroke="#9a958a" stroke-width="0.3"/></g><g data-vid="cantina_barra" data-label="barra"><polygon points="17.3,57.3 29.9,57.3 29.9,59.9 17.3,59.9" fill="#000000" opacity="0.12"/><polygon points="16.48,57.5 28.48,57.5 29,59 17,59" fill="#505357"/><polygon points="28.48,57.5 28.48,55.5 29,57 29,59" fill="#404245"/><polygon points="16.48,55.5 28.48,55.5 28.48,57.5 16.48,57.5" fill="#5b5e63"/><line x1="16.48" y1="57.5" x2="28.48" y2="57.5" stroke="#9a958a" stroke-width="0.3"/></g><g data-vid="derived_ent_tablon" data-label="tablón de encargos"><polygon points="37.3,60.3 38.9,60.3 38.9,61.9 37.3,61.9" fill="#000000" opacity="0.12"/><polygon points="35.95,58 36.95,58 38,61 37,61" fill="#6b4f2e"/><polygon points="36.95,58 36.95,57 38,60 38,61" fill="#553f24"/><polygon points="35.95,57 36.95,57 36.95,58 35.95,58" fill="#7a5a34"/><line x1="35.95" y1="58" x2="36.95" y2="58" stroke="#9a958a" stroke-width="0.3"/></g><g data-vid="mastil" data-part="tall" data-label="mástil de comunicaciones"><ellipse cx="64.6" cy="58.5" rx="4" ry="4" fill="#000000" opacity="0.14"/><polygon points="61.23,41.01 61.4,41.93 67,57.93 66.83,57.01" fill="#5f5a50"/><polygon points="61.4,41.93 61.27,42.86 66.87,58.86 67,57.93" fill="#5f5a50"/><polygon points="61.27,42.86 60.87,43.71 66.47,59.71 66.87,58.86" fill="#5f5a50"/><polygon points="60.87,43.71 60.22,44.39 65.82,60.39 66.47,59.71" fill="#767162"/><polygon points="60.22,44.39 59.39,44.83 64.99,60.83 65.82,60.39" fill="#767162"/><polygon points="59.39,44.83 58.47,45 64.07,61 64.99,60.83" fill="#767162"/><polygon points="58.47,45 57.54,44.87 63.14,60.87 64.07,61" fill="#767162"/><polygon points="57.54,44.87 56.69,44.47 62.29,60.47 63.14,60.87" fill="#767162"/><polygon points="56.69,44.47 56.01,43.82 61.61,59.82 62.29,60.47" fill="#767162"/><polygon points="56.01,43.82 55.57,42.99 61.17,58.99 61.61,59.82" fill="#767162"/><ellipse cx="58.4" cy="42" rx="3" ry="3" fill="#8b8678"/><ellipse cx="58.4" cy="42" rx="3" ry="3" fill="#57524a"/><ellipse cx="58.4" cy="42" rx="2.7" ry="2.7" fill="none" stroke="#a5a08f" stroke-width="1.1" stroke-dasharray="2.1 1.5"/><ellipse cx="58.4" cy="42" rx="2.22" ry="2.22" fill="#8b8678"/><ellipse cx="58.4" cy="42" rx="1.86" ry="1.86" fill="#7d7869"/><rect x="57.14" y="45" width="0.8" height="2.4" fill="#26221c"/><rect x="59.24" y="46" width="0.8" height="2.4" fill="#26221c"/></g><g data-vid="cantina_mesa1" data-label="mesa"><polygon points="19.3,66.3 22.9,66.3 22.9,69.9 19.3,69.9" fill="#000000" opacity="0.12"/><polygon points="18.65,68 21.65,68 22,69 19,69" fill="#625d53"/><polygon points="21.65,68 21.65,65 22,66 22,69" fill="#4e4a42"/><polygon points="18.65,65 21.65,65 21.65,68 18.65,68" fill="#6f6a5e"/><line x1="18.65" y1="68" x2="21.65" y2="68" stroke="#9a958a" stroke-width="0.3"/></g><g data-vid="cantina_mesa2" data-label="mesa"><polygon points="27.3,71.3 30.9,71.3 30.9,74.9 27.3,74.9" fill="#000000" opacity="0.12"/><polygon points="26.65,73 29.65,73 30,74 27,74" fill="#625d53"/><polygon points="29.65,73 29.65,70 30,71 30,74" fill="#4e4a42"/><polygon points="26.65,70 29.65,70 29.65,73 26.65,73" fill="#6f6a5e"/><line x1="26.65" y1="73" x2="29.65" y2="73" stroke="#9a958a" stroke-width="0.3"/></g><g data-vid="cantina_filtro" data-part="tall" data-label="cantina El Filtro"><polygon points="13.37,78.2 35.37,78.2 36,80 14,80" fill="#8c8f94"/><polygon points="13.37,77 35.37,77 35.37,78.2 13.37,78.2" fill="#8c8f94"/><polygon points="35.37,52.2 35.37,65.2 36,67 36,54" fill="#a3977e"/><polygon points="34.17,52.2 35.37,52.2 35.37,65.2 34.17,65.2" fill="#8c8f94"/><polygon points="35.37,69.2 35.37,78.2 36,80 36,71" fill="#a3977e"/><polygon points="34.17,69.2 35.37,69.2 35.37,78.2 34.17,78.2" fill="#8c8f94"/><polygon points="35.86,66.6 37.66,66.6 37.66,70.6 35.86,70.6" fill="#8f887a"/></g><g data-vid="puesto_1" data-label="puesto del mercado"><polygon points="48.3,80.3 54.9,80.3 54.9,84.9 48.3,84.9" fill="#000000" opacity="0.12"/><polygon points="47.3,82 53.3,82 54,84 48,84" fill="#6b5133"/><polygon points="53.3,82 53.3,78 54,80 54,84" fill="#554029"/><polygon points="47.3,78 53.3,78 53.3,82 47.3,82" fill="#7a5c3a"/><line x1="47.3" y1="82" x2="53.3" y2="82" stroke="#9a958a" stroke-width="0.3"/></g><g data-vid="flora_1" data-label="flora alienígena bioluminiscente"><ellipse cx="101.25" cy="84.15" rx="2.28" ry="2.28" fill="#000000" opacity="0.13"/><circle cx="101" cy="82.56" r="2.88" fill="#3a5624"/><circle cx="98.6" cy="83.28" r="2.16" fill="#3a5624"/><circle cx="103.4" cy="83.16" r="2.16" fill="#3a5624"/><circle cx="99.92" cy="81.6" r="1.8" fill="#4c7030"/></g><g data-vid="puesto_2" data-label="puesto del mercado"><polygon points="72.3,82.3 78.9,82.3 78.9,86.9 72.3,86.9" fill="#000000" opacity="0.12"/><polygon points="71.3,84 77.3,84 78,86 72,86" fill="#6b5133"/><polygon points="77.3,84 77.3,80 78,82 78,86" fill="#554029"/><polygon points="71.3,80 77.3,80 77.3,84 71.3,84" fill="#7a5c3a"/><line x1="71.3" y1="84" x2="77.3" y2="84" stroke="#9a958a" stroke-width="0.3"/></g><g data-vid="barandilla_e" data-part="tall" data-label="barandilla"><polygon points="98.5,78 98.5,88 98.8,88.8 98.8,78.8" fill="#000000" opacity="0.14"/><polygon points="97.8,76 97.8,86 98.5,88 98.5,78" fill="#5f5a50"/><line x1="98.42" y1="84.29" x2="97.86" y2="82.69" stroke="#514c43" stroke-width="0.22"/><line x1="98.4" y1="79.57" x2="97.84" y2="77.97" stroke="#514c43" stroke-width="0.22"/><line x1="98.15" y1="77" x2="98.15" y2="87" stroke="#514c43" stroke-width="0.22"/><polygon points="96.8,76 96.8,86 97.8,86 97.8,76" fill="#8b8678"/><polygon points="97.17,75.2 97.17,77.4 97.8,79.2 97.8,77" fill="#96917f"/><polygon points="97.17,79.6 97.17,81.8 97.8,83.6 97.8,81.4" fill="#96917f"/></g><g data-vid="flora_2" data-label="flora alienígena bioluminiscente"><ellipse cx="101.25" cy="92.15" rx="1.9" ry="1.9" fill="#000000" opacity="0.13"/><circle cx="101" cy="90.8" r="2.4" fill="#3a5624"/><circle cx="99" cy="91.4" r="1.8" fill="#3a5624"/><circle cx="103" cy="91.3" r="1.8" fill="#3a5624"/><circle cx="100.1" cy="90" r="1.5" fill="#4c7030"/></g><g data-vid="puesto_3" data-label="puesto del mercado"><polygon points="58.3,92.3 64.9,92.3 64.9,96.9 58.3,96.9" fill="#000000" opacity="0.12"/><polygon points="57.3,94 63.3,94 64,96 58,96" fill="#6b5133"/><polygon points="63.3,94 63.3,90 64,92 64,96" fill="#554029"/><polygon points="57.3,90 63.3,90 63.3,94 57.3,94" fill="#7a5c3a"/><line x1="57.3" y1="94" x2="63.3" y2="94" stroke="#9a958a" stroke-width="0.3"/></g><g data-vid="barandilla_e" data-part="tall" data-label="barandilla"><polygon points="98.5,88 98.5,98 98.8,98.8 98.8,88.8" fill="#000000" opacity="0.14"/><polygon points="97.8,86 97.8,96 98.5,98 98.5,88" fill="#5f5a50"/><line x1="98.42" y1="93.06" x2="97.86" y2="91.46" stroke="#514c43" stroke-width="0.22"/><line x1="98.4" y1="90.38" x2="97.84" y2="88.78" stroke="#514c43" stroke-width="0.22"/><line x1="98.15" y1="87" x2="98.15" y2="97" stroke="#514c43" stroke-width="0.22"/><polygon points="96.8,86 96.8,96 97.8,96 97.8,86" fill="#8b8678"/><polygon points="97.17,85.2 97.17,87.4 97.8,89.2 97.8,87" fill="#96917f"/><polygon points="97.17,89.6 97.17,91.8 97.8,93.6 97.8,91.4" fill="#96917f"/></g></g></svg>