<svg viewBox="-12 -32 140 160" xmlns="http://www.w3.org/2000/svg"><defs><clipPath id="tileclip"><rect x="0" y="0" width="128" height="128"/></clipPath></defs><g id="ground" clip-path="url(#tileclip)"><rect x="0" y="0" width="128" height="128" fill="#8a857a"/><ellipse cx="17.78" cy="35.94" rx="8.43" ry="5.45" fill="#959086" opacity="0.38"/><ellipse cx="113.27" cy="14.67" rx="9.81" ry="6.66" fill="#78746a" opacity="0.32"/><ellipse cx="106.38" cy="98.22" rx="10.08" ry="6.66" fill="#959086" opacity="0.33"/><ellipse cx="87.4" cy="73.62" rx="12.25" ry="8.89" fill="#78746a" opacity="0.39"/><ellipse cx="29.22" cy="89.8" rx="11.63" ry="7.32" fill="#959086" opacity="0.35"/><ellipse cx="116.65" cy="99.62" rx="12.95" ry="8.58" fill="#78746a" opacity="0.35"/><ellipse cx="30.04" cy="113.61" rx="13.07" ry="8.24" fill="#959086" opacity="0.45"/><ellipse cx="17.51" cy="9.85" rx="9.42" ry="7.3" fill="#78746a" opacity="0.36"/><ellipse cx="11.17" cy="43.66" rx="8.65" ry="5.36" fill="#959086" opacity="0.37"/><ellipse cx="57.84" cy="66.99" rx="10.82" ry="6.39" fill="#78746a" opacity="0.44"/><ellipse cx="69.12" cy="30.65" rx="1.16" ry="0.81" fill="#8f887a" opacity="0.75"/><ellipse cx="77.06" cy="4.61" rx="0.71" ry="0.5" fill="#7d7869" opacity="0.75"/><ellipse cx="117.4" cy="76.25" rx="0.99" ry="0.69" fill="#8f887a" opacity="0.75"/><ellipse cx="93.95" cy="39.82" rx="1.16" ry="0.81" fill="#7d7869" opacity="0.75"/><ellipse cx="120.17" cy="116.77" rx="1.03" ry="0.72" fill="#8f887a" opacity="0.75"/><ellipse cx="81.88" cy="86.93" rx="1.15" ry="0.81" fill="#7d7869" opacity="0.75"/><g id="ground"><line x1="64" y1="0" x2="64" y2="72" stroke="#726c60" stroke-width="13" stroke-linecap="round"/><line x1="64" y1="0" x2="64" y2="72" stroke="#9c968a" stroke-width="10" stroke-linecap="round"/><line x1="68" y1="64" x2="128" y2="64" stroke="#726c60" stroke-width="11" stroke-linecap="round"/><line x1="68" y1="64" x2="128" y2="64" stroke="#9c968a" stroke-width="8" stroke-linecap="round"/><line x1="64" y1="70" x2="64" y2="128" stroke="#726c60" stroke-width="13" stroke-linecap="round"/><line x1="64" y1="70" x2="64" y2="128" stroke="#9c968a" stroke-width="10" stroke-linecap="round"/><ellipse cx="64" cy="70" rx="40" ry="33" fill="#a29b8b"/><ellipse cx="46" cy="58" rx="4" ry="3" fill="#8f887a" opacity="0.8"/><ellipse cx="58" cy="64" rx="5" ry="3" fill="#b0a999" opacity="0.7"/><ellipse cx="74" cy="60" rx="4" ry="3" fill="#8f887a" opacity="0.8"/><ellipse cx="84" cy="70" rx="5" ry="3" fill="#b0a999" opacity="0.7"/><ellipse cx="50" cy="78" rx="5" ry="3" fill="#8f887a" opacity="0.8"/><ellipse cx="70" cy="82" rx="4" ry="3" fill="#b0a999" opacity="0.7"/><ellipse cx="80" cy="88" rx="5" ry="3" fill="#8f887a" opacity="0.8"/><ellipse cx="56" cy="92" rx="4" ry="3" fill="#b0a999" opacity="0.7"/><ellipse cx="88" cy="78" rx="4" ry="3" fill="#8f887a" opacity="0.75"/><ellipse cx="42" cy="70" rx="4" ry="3" fill="#b0a999" opacity="0.7"/></g><g id="water"/></g><g id="volumes"></g></svg>