<svg viewBox="-12 -32 140 160" xmlns="http://www.w3.org/2000/svg"><defs><clipPath id="tileclip"><rect x="0" y="0" width="128" height="128"/></clipPath></defs><g id="ground" clip-path="url(#tileclip)"><rect x="0" y="0" width="128" height="128" fill="#8f7a52"/><ellipse cx="17.78" cy="35.94" rx="8.43" ry="5.45" fill="#998662" opacity="0.38"/><ellipse cx="113.27" cy="14.67" rx="9.81" ry="6.66" fill="#7c6a47" opacity="0.32"/><ellipse cx="106.38" cy="98.22" rx="10.08" ry="6.66" fill="#998662" opacity="0.33"/><ellipse cx="87.4" cy="73.62" rx="12.25" ry="8.89" fill="#7c6a47" opacity="0.39"/><ellipse cx="29.22" cy="89.8" rx="11.63" ry="7.32" fill="#998662" opacity="0.35"/><ellipse cx="116.65" cy="99.62" rx="12.95" ry="8.58" fill="#7c6a47" opacity="0.35"/><ellipse cx="30.04" cy="113.61" rx="13.07" ry="8.24" fill="#998662" opacity="0.45"/><ellipse cx="17.51" cy="9.85" rx="9.42" ry="7.3" fill="#7c6a47" opacity="0.36"/><ellipse cx="11.17" cy="43.66" rx="8.65" ry="5.36" fill="#998662" opacity="0.37"/><ellipse cx="57.84" cy="66.99" rx="10.82" ry="6.39" fill="#7c6a47" opacity="0.44"/><ellipse cx="69.12" cy="30.65" rx="1.16" ry="0.81" fill="#8f887a" opacity="0.75"/><ellipse cx="77.06" cy="4.61" rx="0.71" ry="0.5" fill="#7d7869" opacity="0.75"/><ellipse cx="117.4" cy="76.25" rx="0.99" ry="0.69" fill="#8f887a" opacity="0.75"/><ellipse cx="93.95" cy="39.82" rx="1.16" ry="0.81" fill="#7d7869" opacity="0.75"/><ellipse cx="120.17" cy="116.77" rx="1.03" ry="0.72" fill="#8f887a" opacity="0.75"/><ellipse cx="81.88" cy="86.93" rx="1.15" ry="0.81" fill="#7d7869" opacity="0.75"/><g id="ground"><ellipse cx="64" cy="58" rx="17" ry="11" fill="#a29b8b"/><ellipse cx="56" cy="54" rx="2.2" ry="1.4" fill="#8f887a" opacity="0.8"/><ellipse cx="70" cy="55" rx="2.5" ry="1.5" fill="#b0a999" opacity="0.8"/><ellipse cx="60" cy="62" rx="2.1" ry="1.3" fill="#8f887a" opacity="0.8"/><ellipse cx="72" cy="61" rx="2.4" ry="1.5" fill="#b0a999" opacity="0.8"/><ellipse cx="66" cy="66" rx="2.2" ry="1.3" fill="#8f887a" opacity="0.8"/><ellipse cx="54" cy="60" rx="1.8" ry="1.2" fill="#b0a999" opacity="0.8"/><ellipse cx="76" cy="58" rx="2.0" ry="1.3" fill="#8f887a" opacity="0.8"/><ellipse cx="62" cy="68" rx="1.9" ry="1.2" fill="#b0a999" opacity="0.8"/><path d="M0,62 C30,63 48,64 64,64 S100,64 128,64" fill="none" stroke="#8f8878" stroke-width="7" stroke-linecap="round"/><path d="M0,62 C30,63 48,64 64,64 S100,64 128,64" fill="none" stroke="#a8a191" stroke-width="5.2" stroke-linecap="round"/><path d="M60,56 C58,42 56,14 54,0" fill="none" stroke="#8a7650" stroke-width="3.2" stroke-linecap="round" opacity="0.9"/><path d="M60,56 C58,42 56,14 54,0" fill="none" stroke="#a89162" stroke-width="2.2" stroke-linecap="round"/><path d="M66,66 C68,90 70,110 72,128" fill="none" stroke="#8a7650" stroke-width="3.2" stroke-linecap="round" opacity="0.9"/><path d="M66,66 C68,90 70,110 72,128" fill="none" stroke="#a89162" stroke-width="2.2" stroke-linecap="round"/><rect x="41" y="41" width="14" height="10" fill="#7c5a36"/><line x1="41" y1="44" x2="55" y2="44" stroke="#5f4426" stroke-width="0.4"/><line x1="41" y1="47" x2="55" y2="47" stroke="#5f4426" stroke-width="0.4"/><line x1="41" y1="50" x2="55" y2="50" stroke="#5f4426" stroke-width="0.4"/><ellipse cx="48" cy="53" rx="5" ry="2.5" fill="#8a7650" opacity="0.55"/><ellipse cx="62" cy="72" rx="4.5" ry="2" fill="#8a7650" opacity="0.55"/><rect x="1" y="90" width="32" height="37" fill="#6d5a3a" opacity="0.85"/><line x1="3" y1="96" x2="31" y2="96" stroke="#48682f" stroke-width="1.2" opacity="0.5"/><line x1="3" y1="103" x2="31" y2="103" stroke="#48682f" stroke-width="1.2" opacity="0.5"/><line x1="3" y1="110" x2="31" y2="110" stroke="#48682f" stroke-width="1.2" opacity="0.5"/><line x1="3" y1="117" x2="31" y2="117" stroke="#48682f" stroke-width="1.2" opacity="0.5"/><line x1="3" y1="124" x2="31" y2="124" stroke="#48682f" stroke-width="1.2" opacity="0.5"/></g><g id="water"/></g><g id="volumes"><g data-vid="muralla_adarve" data-part="tall" data-label="muralla"><polygon points="104,0 104,12.8 104.3,13.6 104.3,0.8" fill="#000000" opacity="0.14"/><polygon points="100.85,-9 100.85,3.8 104,12.8 104,0" fill="#5f5a50"/><line x1="103.1" y1="6.21" x2="102.54" y2="4.61" stroke="#514c43" stroke-width="0.22"/><line x1="102.69" y1="-2.13" x2="102.13" y2="-3.73" stroke="#514c43" stroke-width="0.22"/><line x1="102.42" y1="-4.5" x2="102.42" y2="8.3" stroke="#514c43" stroke-width="0.22"/><polygon points="96.85,-9 96.85,3.8 100.85,3.8 100.85,-9" fill="#8b8678"/><polygon points="100.22,-9.8 100.22,-7.6 100.85,-5.8 100.85,-8" fill="#96917f"/><polygon points="100.22,-5.4 100.22,-3.2 100.85,-1.4 100.85,-3.6" fill="#96917f"/></g><g data-vid="muralla_adarve" data-part="tall" data-label="muralla"><polygon points="104,12.8 104,25.6 104.3,26.4 104.3,13.6" fill="#000000" opacity="0.14"/><polygon points="100.85,3.8 100.85,16.6 104,25.6 104,12.8" fill="#5f5a50"/><line x1="103.44" y1="13.95" x2="102.88" y2="12.35" stroke="#514c43" stroke-width="0.22"/><line x1="101.87" y1="10.33" x2="101.31" y2="8.73" stroke="#514c43" stroke-width="0.22"/><line x1="102.42" y1="8.3" x2="102.42" y2="21.1" stroke="#514c43" stroke-width="0.22"/><polygon points="96.85,3.8 96.85,16.6 100.85,16.6 100.85,3.8" fill="#8b8678"/><polygon points="100.22,3 100.22,5.2 100.85,7 100.85,4.8" fill="#96917f"/><polygon points="100.22,7.4 100.22,9.6 100.85,11.4 100.85,9.2" fill="#96917f"/></g><g data-vid="taberna_serrana" data-label="taberna"><polygon points="40.3,40.3 57,40.3 57,53 40.3,53" fill="#000000" opacity="0.12"/><polygon points="40,40 56,40 56,52 40,52" fill="#7c5a36"/><line x1="40" y1="42.2" x2="56" y2="42.2" stroke="#6a4b2b" stroke-width="0.25"/><line x1="40" y1="44.4" x2="56" y2="44.4" stroke="#6a4b2b" stroke-width="0.25"/><line x1="40" y1="46.6" x2="56" y2="46.6" stroke="#6a4b2b" stroke-width="0.25"/><line x1="40" y1="48.8" x2="56" y2="48.8" stroke="#6a4b2b" stroke-width="0.25"/></g><g data-vid="taberna_serrana" data-part="tall" data-label="taberna"><polygon points="38.25,36.2 54.25,36.2 56,41.2 40,41.2" fill="#7a6849"/><polygon points="38.25,35 54.25,35 54.25,36.2 38.25,36.2" fill="#6b543a"/></g><g data-vid="taberna_serrana" data-part="tall" data-label="taberna"><polygon points="39.45,36.2 39.45,47 41.2,52 41.2,41.2" fill="#6b543a"/><polygon points="38.25,35 39.45,36.2 39.45,47 38.25,47" fill="#6b543a"/></g><g data-vid="casa_calle_n" data-part="tall" data-label="casa"><polygon points="70.3,30.3 85,30.3 85,41 70.3,41" fill="#000000" opacity="0.12"/><polygon points="68.25,35 74.25,35 76,40 70,40" fill="#cfc0a2"/><polygon points="77.25,35 82.25,35 84,40 79,40" fill="#cfc0a2"/><polygon points="82.25,25 82.25,35 84,40 84,30" fill="#a3977e"/><line x1="78.85" y1="38.14" x2="78.29" y2="36.54" stroke="#8a7f68" stroke-width="0.22"/><line x1="72.74" y1="38.59" x2="72.18" y2="36.99" stroke="#8a7f68" stroke-width="0.22"/><line x1="69.13" y1="37.5" x2="83.13" y2="37.5" stroke="#8a7f68" stroke-width="0.22"/><polygon points="74.6,36 77.6,36 79,40 76,40" fill="#5c4326"/><polygon points="75.36,39.6 79.36,39.6 79.36,41.2 75.36,41.2" fill="#8f887a"/><polygon points="65.74,26.25 82.14,26.25 83.45,23.8 67.05,23.8" fill="#a05a38"/><polygon points="82.25,25 82.25,35 80.94,26.25" fill="#a3977e"/><polygon points="65.74,26.25 82.14,26.25 83.45,36.2 67.05,36.2" fill="#a05a38"/><line x1="66.07" y1="28.74" x2="82.47" y2="28.74" stroke="#7e3020" stroke-width="0.35"/><line x1="66.39" y1="31.23" x2="82.79" y2="31.23" stroke="#7e3020" stroke-width="0.35"/><line x1="66.72" y1="33.71" x2="83.12" y2="33.71" stroke="#7e3020" stroke-width="0.35"/><line x1="65.74" y1="26.25" x2="82.14" y2="26.25" stroke="#7e3020" stroke-width="0.6"/></g><g data-vid="muralla_adarve" data-part="tall" data-label="muralla"><polygon points="104,25.6 104,38.4 104.3,39.2 104.3,26.4" fill="#000000" opacity="0.14"/><polygon points="100.85,16.6 100.85,29.4 104,38.4 104,25.6" fill="#5f5a50"/><line x1="102.12" y1="31.54" x2="101.56" y2="29.94" stroke="#514c43" stroke-width="0.22"/><line x1="101.61" y1="29.85" x2="101.05" y2="28.25" stroke="#514c43" stroke-width="0.22"/><line x1="102.42" y1="21.1" x2="102.42" y2="33.9" stroke="#514c43" stroke-width="0.22"/><polygon points="96.85,16.6 96.85,29.4 100.85,29.4 100.85,16.6" fill="#8b8678"/><polygon points="100.22,15.8 100.22,18 100.85,19.8 100.85,17.6" fill="#96917f"/><polygon points="100.22,20.2 100.22,22.4 100.85,24.2 100.85,22" fill="#96917f"/></g><g data-vid="barril_taberna" data-label="barril"><ellipse cx="53.6" cy="42.5" rx="1.7" ry="1.7" fill="#000000" opacity="0.14"/><polygon points="53.53,39.57 53.6,39.97 54.3,41.97 54.23,41.57" fill="#55402b"/><polygon points="53.6,39.97 53.55,40.37 54.25,42.37 54.3,41.97" fill="#55402b"/><polygon points="53.55,40.37 53.37,40.74 54.07,42.74 54.25,42.37" fill="#55402b"/><polygon points="53.37,40.74 53.09,41.03 53.79,43.03 54.07,42.74" fill="#6b5137"/><polygon points="53.09,41.03 52.73,41.23 53.43,43.23 53.79,43.03" fill="#6b5137"/><polygon points="52.73,41.23 52.33,41.3 53.03,43.3 53.43,43.23" fill="#6b5137"/><polygon points="52.33,41.3 51.93,41.25 52.63,43.25 53.03,43.3" fill="#6b5137"/><polygon points="51.93,41.25 51.56,41.07 52.26,43.07 52.63,43.25" fill="#6b5137"/><polygon points="51.56,41.07 51.27,40.79 51.97,42.79 52.26,43.07" fill="#6b5137"/><polygon points="51.27,40.79 51.07,40.43 51.77,42.43 51.97,42.79" fill="#6b5137"/><ellipse cx="52.3" cy="40" rx="1.3" ry="1.3" fill="#7a5c3e"/><ellipse cx="52.3" cy="40" rx="1.3" ry="1.3" fill="none" stroke="#433322" stroke-width="0.25"/></g><g data-vid="torre_adarve" data-part="tall" data-label="torre"><ellipse cx="102.6" cy="34.5" rx="7" ry="7" fill="#000000" opacity="0.14"/><polygon points="103.11,19.02 103.45,20.86 108,33.86 107.66,32.02" fill="#5f5a50"/><polygon points="103.45,20.86 103.2,22.73 107.75,35.73 108,33.86" fill="#5f5a50"/><polygon points="103.2,22.73 102.38,24.42 106.93,37.42 107.75,35.73" fill="#5f5a50"/><polygon points="102.38,24.42 101.09,25.77 105.64,38.77 106.93,37.42" fill="#767162"/><polygon points="101.09,25.77 99.43,26.66 103.98,39.66 105.64,38.77" fill="#767162"/><polygon points="99.43,26.66 97.59,27 102.14,40 103.98,39.66" fill="#767162"/><polygon points="97.59,27 95.72,26.75 100.27,39.75 102.14,40" fill="#767162"/><polygon points="95.72,26.75 94.03,25.93 98.58,38.93 100.27,39.75" fill="#767162"/><polygon points="94.03,25.93 92.68,24.64 97.23,37.64 98.58,38.93" fill="#767162"/><polygon points="92.68,24.64 91.79,22.98 96.34,35.98 97.23,37.64" fill="#767162"/><ellipse cx="97.45" cy="21" rx="6" ry="6" fill="#8b8678"/><ellipse cx="97.45" cy="21" rx="6" ry="6" fill="#57524a"/><ellipse cx="97.45" cy="21" rx="5.4" ry="5.4" fill="none" stroke="#a5a08f" stroke-width="1.68" stroke-dasharray="2.1 1.5"/><ellipse cx="97.45" cy="21" rx="4.44" ry="4.44" fill="#8b8678"/><ellipse cx="97.45" cy="21" rx="3.72" ry="3.72" fill="#7d7869"/><rect x="94.93" y="24" width="0.8" height="2.4" fill="#26221c"/><rect x="99.13" y="25" width="0.8" height="2.4" fill="#26221c"/></g><g data-vid="mostrador_taberna" data-label="mostrador"><polygon points="42.3,43.3 47.9,43.3 47.9,45.9 42.3,45.9" fill="#000000" opacity="0.12"/><polygon points="41.3,43 46.3,43 47,45 42,45" fill="#543c21"/><polygon points="46.3,43 46.3,41 47,43 47,45" fill="#43301b"/><polygon points="41.3,41 46.3,41 46.3,43 41.3,43" fill="#5f4426"/><line x1="41.3" y1="43" x2="46.3" y2="43" stroke="#9a958a" stroke-width="0.3"/></g><g data-vid="mesa_taberna" data-label="mesa"><polygon points="46.3,47.3 49.9,47.3 49.9,49.9 46.3,49.9" fill="#000000" opacity="0.12"/><polygon points="45.48,47.5 48.48,47.5 49,49 46,49" fill="#5e4a33"/><polygon points="48.48,47.5 48.48,45.5 49,47 49,49" fill="#4b3b29"/><polygon points="45.48,45.5 48.48,45.5 48.48,47.5 45.48,47.5" fill="#6b543a"/><line x1="45.48" y1="47.5" x2="48.48" y2="47.5" stroke="#9a958a" stroke-width="0.3"/></g><g data-vid="taberna_serrana" data-part="tall" data-label="taberna"><polygon points="39.37,50.2 46.37,50.2 47,52 40,52" fill="#6b543a"/><polygon points="39.37,49 46.37,49 46.37,50.2 39.37,50.2" fill="#6b543a"/><polygon points="50.37,50.2 55.37,50.2 56,52 51,52" fill="#6b543a"/><polygon points="50.37,49 55.37,49 55.37,50.2 50.37,50.2" fill="#6b543a"/><polygon points="55.37,38.2 55.37,50.2 56,52 56,40" fill="#7a6849"/><polygon points="54.17,38.2 55.37,38.2 55.37,50.2 54.17,50.2" fill="#6b543a"/><polygon points="46.86,51.6 50.86,51.6 50.86,53.4 46.86,53.4" fill="#8f887a"/></g><g data-vid="muralla_adarve" data-part="tall" data-label="muralla"><polygon points="104,38.4 104,51.2 104.3,52 104.3,39.2" fill="#000000" opacity="0.14"/><polygon points="100.85,29.4 100.85,42.2 104,51.2 104,38.4" fill="#5f5a50"/><line x1="101.96" y1="36.6" x2="101.4" y2="35" stroke="#514c43" stroke-width="0.22"/><line x1="103.51" y1="39.63" x2="102.95" y2="38.03" stroke="#514c43" stroke-width="0.22"/><line x1="102.42" y1="33.9" x2="102.42" y2="46.7" stroke="#514c43" stroke-width="0.22"/><polygon points="96.85,29.4 96.85,42.2 100.85,42.2 100.85,29.4" fill="#8b8678"/><polygon points="100.22,28.6 100.22,30.8 100.85,32.6 100.85,30.4" fill="#96917f"/><polygon points="100.22,33 100.22,35.2 100.85,37 100.85,34.8" fill="#96917f"/></g><g data-vid="casa_zocodover" data-part="tall" data-label="casa"><polygon points="110.3,42.3 125,42.3 125,55 110.3,55" fill="#000000" opacity="0.12"/><polygon points="108.25,49 114.25,49 116,54 110,54" fill="#cfc0a2"/><polygon points="117.25,49 122.25,49 124,54 119,54" fill="#cfc0a2"/><polygon points="122.25,37 122.25,49 124,54 124,42" fill="#a3977e"/><line x1="112.11" y1="52.87" x2="111.55" y2="51.27" stroke="#8a7f68" stroke-width="0.22"/><line x1="110.41" y1="51.23" x2="109.85" y2="49.63" stroke="#8a7f68" stroke-width="0.22"/><line x1="109.13" y1="51.5" x2="123.13" y2="51.5" stroke="#8a7f68" stroke-width="0.22"/><polygon points="114.6,50 117.6,50 119,54 116,54" fill="#5c4326"/><polygon points="115.36,53.6 119.36,53.6 119.36,55.2 115.36,55.2" fill="#8f887a"/><polygon points="113.94,32.05 113.94,46.45 107.05,50.2 107.05,35.8" fill="#96522f"/><polygon points="108.25,49 122.25,49 113.94,45.25" fill="#cfc0a2"/><polygon points="113.94,32.05 113.94,46.45 123.45,50.2 123.45,35.8" fill="#96522f"/><line x1="113.94" y1="32.05" x2="113.94" y2="46.45" stroke="#7e3020" stroke-width="0.6"/></g><g data-vid="pozo_plazuela" data-label="pozo"><ellipse cx="64" cy="52" rx="6" ry="6" fill="#5a7a36"/><ellipse cx="64" cy="52" rx="4.6" ry="4.6" fill="#a29b8b"/><ellipse cx="64.7" cy="53" rx="3" ry="3" fill="#000000" opacity="0.14"/><polygon points="66.34,49.61 66.51,50.53 67,51.93 66.83,51.01" fill="#5f5a50"/><polygon points="66.51,50.53 66.38,51.46 66.87,52.86 67,51.93" fill="#5f5a50"/><polygon points="66.38,51.46 65.98,52.31 66.47,53.71 66.87,52.86" fill="#5f5a50"/><polygon points="65.98,52.31 65.33,52.99 65.82,54.39 66.47,53.71" fill="#767162"/><polygon points="65.33,52.99 64.5,53.43 64.99,54.83 65.82,54.39" fill="#767162"/><polygon points="64.5,53.43 63.58,53.6 64.07,55 64.99,54.83" fill="#767162"/><polygon points="63.58,53.6 62.65,53.47 63.14,54.87 64.07,55" fill="#767162"/><polygon points="62.65,53.47 61.8,53.07 62.29,54.47 63.14,54.87" fill="#767162"/><polygon points="61.8,53.07 61.12,52.42 61.61,53.82 62.29,54.47" fill="#767162"/><polygon points="61.12,52.42 60.68,51.59 61.17,52.99 61.61,53.82" fill="#767162"/><ellipse cx="63.51" cy="50.6" rx="3" ry="3" fill="#979181"/><ellipse cx="64" cy="50.6" rx="2.34" ry="2.34" fill="#7d7869"/><ellipse cx="64" cy="50.6" rx="2.16" ry="2.16" fill="#2e6e8e"/><polygon points="63.38,48.4 63.41,48.59 64.6,51.99 64.57,51.8" fill="#5f5a50"/><polygon points="63.41,48.59 63.38,48.77 64.57,52.17 64.6,51.99" fill="#5f5a50"/><polygon points="63.38,48.77 63.3,48.94 64.49,52.34 64.57,52.17" fill="#5f5a50"/><polygon points="63.3,48.94 63.17,49.08 64.36,52.48 64.49,52.34" fill="#767162"/><polygon points="63.17,49.08 63.01,49.17 64.2,52.57 64.36,52.48" fill="#767162"/><polygon points="63.01,49.17 62.82,49.2 64.01,52.6 64.2,52.57" fill="#767162"/><polygon points="62.82,49.2 62.64,49.17 63.83,52.57 64.01,52.6" fill="#767162"/><polygon points="62.64,49.17 62.47,49.09 63.66,52.49 63.83,52.57" fill="#767162"/><polygon points="62.47,49.09 62.33,48.96 63.52,52.36 63.66,52.49" fill="#767162"/><polygon points="62.33,48.96 62.24,48.8 63.43,52.2 63.52,52.36" fill="#767162"/><ellipse cx="62.81" cy="48.6" rx="0.6" ry="0.6" fill="#a09a89"/><circle cx="62.81" cy="47.7" r="0.5" fill="#bfe0ea"/><circle cx="62.01" cy="48.3" r="0.28" fill="#bfe0ea" opacity="0.8"/><circle cx="63.61" cy="48.25" r="0.28" fill="#bfe0ea" opacity="0.8"/></g><g data-vid="puesto_cambista" data-label="puesto de cambista"><polygon points="74.3,54.3 78.9,54.3 78.9,56.9 74.3,56.9" fill="#000000" opacity="0.12"/><polygon points="72.95,53 76.95,53 78,56 74,56" fill="#6b5137"/><polygon points="76.95,53 76.95,51 78,54 78,56" fill="#55402b"/><polygon points="72.95,51 76.95,51 76.95,53 72.95,53" fill="#7a5c3e"/><line x1="72.95" y1="53" x2="76.95" y2="53" stroke="#9a958a" stroke-width="0.3"/></g><g data-vid="carro_lena" data-label="carro"><polygon points="88.3,58.3 92.9,58.3 92.9,60.9 88.3,60.9" fill="#000000" opacity="0.12"/><polygon points="87.3,58 91.3,58 92,60 88,60" fill="#795e41"/><polygon points="91.3,58 91.3,56 92,58 92,60" fill="#614b34"/><polygon points="87.3,56 91.3,56 91.3,58 87.3,58" fill="#8a6b4a"/><line x1="87.3" y1="58" x2="91.3" y2="58" stroke="#9a958a" stroke-width="0.3"/></g><g data-vid="muralla_adarve" data-part="tall" data-label="muralla"><polygon points="104,51.2 104,64 104.3,64.8 104.3,52" fill="#000000" opacity="0.14"/><polygon points="100.85,42.2 100.85,55 104,64 104,51.2" fill="#5f5a50"/><line x1="101.87" y1="48.22" x2="101.31" y2="46.62" stroke="#514c43" stroke-width="0.22"/><line x1="102.69" y1="58.31" x2="102.13" y2="56.71" stroke="#514c43" stroke-width="0.22"/><line x1="102.42" y1="46.7" x2="102.42" y2="59.5" stroke="#514c43" stroke-width="0.22"/><polygon points="96.85,42.2 96.85,55 100.85,55 100.85,42.2" fill="#8b8678"/><polygon points="100.22,41.4 100.22,43.6 100.85,45.4 100.85,43.2" fill="#96917f"/><polygon points="100.22,45.8 100.22,48 100.85,49.8 100.85,47.6" fill="#96917f"/></g><g data-vid="banco_plaza" data-label="banco"><polygon points="60.3,68.3 63.9,68.3 63.9,69.9 60.3,69.9" fill="#000000" opacity="0.12"/><polygon points="59.65,68 62.65,68 63,69 60,69" fill="#7e786b"/><polygon points="62.65,68 62.65,67 63,68 63,69" fill="#645f55"/><polygon points="59.65,67 62.65,67 62.65,68 59.65,68" fill="#8f887a"/><line x1="59.65" y1="68" x2="62.65" y2="68" stroke="#9a958a" stroke-width="0.3"/></g><g data-vid="puerta_adarve" data-part="tall" data-label="arco del adarve"><polygon points="100.1,57.3 105.1,57.3 105.1,71.9 100.1,71.9" fill="#000000" opacity="0.12"/><polygon points="96.3,61 100.7,61 104.2,71 99.8,71" fill="#767162"/><polygon points="100.7,61 100.7,47 104.2,57 104.2,71" fill="#5f5a50"/><polygon points="96.3,47 100.7,47 100.7,61 96.3,61" fill="#8b8678"/><line x1="96.3" y1="61" x2="100.7" y2="61" stroke="#9a958a" stroke-width="0.3"/><polygon points="100.14,46.52 100.14,48.34 100.7,49.94 100.7,48.12" fill="#96917f"/><polygon points="100.14,49.88 100.14,51.7 100.7,53.3 100.7,51.48" fill="#96917f"/><polygon points="100.14,53.24 100.14,55.06 100.7,56.66 100.7,54.84" fill="#96917f"/><polygon points="100.14,56.6 100.14,58.42 100.7,60.02 100.7,58.2" fill="#96917f"/><polygon points="102.17,54.2 102.17,62.2 104.2,68 104.2,60" fill="#211d17"/><ellipse cx="102.17" cy="58.2" rx="4" ry="3.2" fill="#211d17" transform="rotate(90 102.17 58.2)"/><line x1="104.2" y1="60" x2="104.2" y2="68" stroke="#8a7650" stroke-width="1.2" opacity="0.5"/><path d="M95.02,53.52 L96.92,53.52 L96.92,57.52 L95.97,56.62 L95.02,57.52 Z" fill="#a03028"/><circle cx="95.97" cy="54.72" r="0.42" fill="#c9a24b"/><path d="M107.42,53.52 L109.32,53.52 L109.32,57.52 L108.37,56.62 L107.42,57.52 Z" fill="#a03028"/><circle cx="108.37" cy="54.72" r="0.42" fill="#c9a24b"/></g><g data-vid="muralla_adarve" data-part="tall" data-label="muralla"><polygon points="104,64 104,76.8 104.3,77.6 104.3,64.8" fill="#000000" opacity="0.14"/><polygon points="100.85,55 100.85,67.8 104,76.8 104,64" fill="#5f5a50"/><line x1="103.41" y1="70.18" x2="102.85" y2="68.58" stroke="#514c43" stroke-width="0.22"/><line x1="103.37" y1="72.21" x2="102.81" y2="70.61" stroke="#514c43" stroke-width="0.22"/><line x1="102.42" y1="59.5" x2="102.42" y2="72.3" stroke="#514c43" stroke-width="0.22"/><polygon points="96.85,55 96.85,67.8 100.85,67.8 100.85,55" fill="#8b8678"/><polygon points="100.22,54.2 100.22,56.4 100.85,58.2 100.85,56" fill="#96917f"/><polygon points="100.22,58.6 100.22,60.8 100.85,62.6 100.85,60.4" fill="#96917f"/></g><g data-vid="casa_calle_s" data-part="tall" data-label="casa"><polygon points="18.3,70.3 31,70.3 31,81 18.3,81" fill="#000000" opacity="0.12"/><polygon points="16.25,75 28.25,75 30,80 18,80" fill="#b3a68e"/><polygon points="28.25,65 28.25,75 30,80 30,70" fill="#5f5a50"/><line x1="26.39" y1="78.01" x2="25.83" y2="76.41" stroke="#514c43" stroke-width="0.22"/><line x1="23.27" y1="77.41" x2="22.71" y2="75.81" stroke="#514c43" stroke-width="0.22"/><line x1="17.13" y1="77.5" x2="29.13" y2="77.5" stroke="#514c43" stroke-width="0.22"/><polygon points="21.44,76.4 24.04,76.4 24.78,78.5 22.18,78.5" fill="#2b2620"/><polygon points="21.93,76.8 23.83,76.8 24.29,78.1 22.39,78.1" fill="#efb95a" opacity="0.85"/><polygon points="13.74,66.25 28.14,66.25 29.45,63.8 15.05,63.8" fill="#96522f"/><polygon points="28.25,65 28.25,75 26.94,66.25" fill="#5f5a50"/><polygon points="13.74,66.25 28.14,66.25 29.45,76.2 15.05,76.2" fill="#96522f"/><line x1="14.07" y1="68.74" x2="28.47" y2="68.74" stroke="#7e3020" stroke-width="0.35"/><line x1="14.39" y1="71.22" x2="28.79" y2="71.22" stroke="#7e3020" stroke-width="0.35"/><line x1="14.72" y1="73.71" x2="29.12" y2="73.71" stroke="#7e3020" stroke-width="0.35"/><line x1="13.74" y1="66.25" x2="28.14" y2="66.25" stroke="#7e3020" stroke-width="0.6"/></g><g data-vid="horno_barrio" data-part="tall" data-label="horno"><polygon points="56.3,74.3 69,74.3 69,85 56.3,85" fill="#000000" opacity="0.12"/><polygon points="54.25,79 66.25,79 68,84 56,84" fill="#c9b89a"/><polygon points="66.25,69 66.25,79 68,84 68,74" fill="#a3977e"/><line x1="56.38" y1="82.15" x2="55.82" y2="80.55" stroke="#8a7f68" stroke-width="0.22"/><line x1="55.96" y1="81.06" x2="55.4" y2="79.46" stroke="#8a7f68" stroke-width="0.22"/><line x1="55.13" y1="81.5" x2="67.13" y2="81.5" stroke="#8a7f68" stroke-width="0.22"/><polygon points="59.44,80.4 62.04,80.4 62.78,82.5 60.18,82.5" fill="#2b2620"/><polygon points="59.93,80.8 61.83,80.8 62.29,82.1 60.39,82.1" fill="#efb95a" opacity="0.85"/><polygon points="51.74,64.05 66.14,64.05 67.45,80.2 53.05,80.2" fill="#9a5b3c"/><line x1="53.05" y1="80.2" x2="67.45" y2="80.2" stroke="#7e3020" stroke-width="0.5"/></g><g data-vid="casa_adarve" data-part="tall" data-label="casa"><polygon points="82.3,74.3 95,74.3 95,85 82.3,85" fill="#000000" opacity="0.12"/><polygon points="80.25,79 92.25,79 94,84 82,84" fill="#c9b89a"/><polygon points="92.25,69 92.25,79 94,84 94,74" fill="#a3977e"/><line x1="91.81" y1="82.47" x2="91.25" y2="80.87" stroke="#8a7f68" stroke-width="0.22"/><line x1="84.79" y1="82.15" x2="84.23" y2="80.55" stroke="#8a7f68" stroke-width="0.22"/><line x1="81.13" y1="81.5" x2="93.13" y2="81.5" stroke="#8a7f68" stroke-width="0.22"/><polygon points="85.44,80.4 88.04,80.4 88.77,82.5 86.17,82.5" fill="#2b2620"/><polygon points="85.93,80.8 87.83,80.8 88.28,82.1 86.38,82.1" fill="#efb95a" opacity="0.85"/><polygon points="77.74,70.25 92.14,70.25 93.45,67.8 79.05,67.8" fill="#a05a38"/><polygon points="92.25,69 92.25,79 90.94,70.25" fill="#a3977e"/><polygon points="77.74,70.25 92.14,70.25 93.45,80.2 79.05,80.2" fill="#a05a38"/><line x1="78.07" y1="72.74" x2="92.47" y2="72.74" stroke="#7e3020" stroke-width="0.35"/><line x1="78.39" y1="75.22" x2="92.79" y2="75.22" stroke="#7e3020" stroke-width="0.35"/><line x1="78.72" y1="77.71" x2="93.12" y2="77.71" stroke="#7e3020" stroke-width="0.35"/><line x1="77.74" y1="70.25" x2="92.14" y2="70.25" stroke="#7e3020" stroke-width="0.6"/></g><g data-vid="tapia_huerto_n" data-part="tall" data-label="tapia"><polygon points="0,89 11.33,89 11.63,89.8 0.3,89.8" fill="#000000" opacity="0.14"/><polygon points="-1.4,85 9.93,85 11.33,89 0,89" fill="#767162"/><line x1="2.36" y1="88.13" x2="1.8" y2="86.53" stroke="#514c43" stroke-width="0.22"/><line x1="1.52" y1="87.55" x2="0.96" y2="85.95" stroke="#514c43" stroke-width="0.22"/><line x1="-0.7" y1="87" x2="10.63" y2="87" stroke="#514c43" stroke-width="0.22"/><polygon points="-1.4,83 9.93,83 9.93,85 -1.4,85" fill="#8b8678"/><polygon points="-1.03,83.2 1.17,83.2 1.8,85 -0.4,85" fill="#96917f"/><polygon points="-1.03,82.1 1.17,82.1 1.17,83.2 -1.03,83.2" fill="#96917f"/><polygon points="3.37,83.2 5.57,83.2 6.2,85 4,85" fill="#96917f"/><polygon points="3.37,82.1 5.57,82.1 5.57,83.2 3.37,83.2" fill="#96917f"/></g><g data-vid="tapia_huerto_n" data-part="tall" data-label="tapia"><polygon points="11.33,89 22.67,89 22.97,89.8 11.63,89.8" fill="#000000" opacity="0.14"/><polygon points="9.93,85 21.27,85 22.67,89 11.33,89" fill="#767162"/><line x1="13" y1="87.51" x2="12.44" y2="85.91" stroke="#514c43" stroke-width="0.22"/><line x1="14.32" y1="87.45" x2="13.76" y2="85.85" stroke="#514c43" stroke-width="0.22"/><line x1="10.63" y1="87" x2="21.97" y2="87" stroke="#514c43" stroke-width="0.22"/><polygon points="9.93,83 21.27,83 21.27,85 9.93,85" fill="#8b8678"/><polygon points="10.3,83.2 12.5,83.2 13.13,85 10.93,85" fill="#96917f"/><polygon points="10.3,82.1 12.5,82.1 12.5,83.2 10.3,83.2" fill="#96917f"/><polygon points="14.7,83.2 16.9,83.2 17.53,85 15.33,85" fill="#96917f"/><polygon points="14.7,82.1 16.9,82.1 16.9,83.2 14.7,83.2" fill="#96917f"/></g><g data-vid="tapia_huerto_n" data-part="tall" data-label="tapia"><polygon points="22.67,89 34,89 34.3,89.8 22.97,89.8" fill="#000000" opacity="0.14"/><polygon points="21.27,85 32.6,85 34,89 22.67,89" fill="#767162"/><line x1="27.19" y1="87.89" x2="26.63" y2="86.29" stroke="#514c43" stroke-width="0.22"/><line x1="29.06" y1="87.04" x2="28.5" y2="85.44" stroke="#514c43" stroke-width="0.22"/><line x1="21.97" y1="87" x2="33.3" y2="87" stroke="#514c43" stroke-width="0.22"/><polygon points="21.27,83 32.6,83 32.6,85 21.27,85" fill="#8b8678"/><polygon points="21.64,83.2 23.84,83.2 24.47,85 22.27,85" fill="#96917f"/><polygon points="21.64,82.1 23.84,82.1 23.84,83.2 21.64,83.2" fill="#96917f"/><polygon points="26.04,83.2 28.24,83.2 28.87,85 26.67,85" fill="#96917f"/><polygon points="26.04,82.1 28.24,82.1 28.24,83.2 26.04,83.2" fill="#96917f"/></g><g data-vid="muralla_adarve" data-part="tall" data-label="muralla"><polygon points="104,76.8 104,89.6 104.3,90.4 104.3,77.6" fill="#000000" opacity="0.14"/><polygon points="100.85,67.8 100.85,80.6 104,89.6 104,76.8" fill="#5f5a50"/><line x1="103.91" y1="82.22" x2="103.35" y2="80.62" stroke="#514c43" stroke-width="0.22"/><line x1="103.4" y1="84.62" x2="102.84" y2="83.02" stroke="#514c43" stroke-width="0.22"/><line x1="102.42" y1="72.3" x2="102.42" y2="85.1" stroke="#514c43" stroke-width="0.22"/><polygon points="96.85,67.8 96.85,80.6 100.85,80.6 100.85,67.8" fill="#8b8678"/><polygon points="100.22,67 100.22,69.2 100.85,71 100.85,68.8" fill="#96917f"/><polygon points="100.22,71.4 100.22,73.6 100.85,75.4 100.85,73.2" fill="#96917f"/></g><g data-vid="frutal_2" data-part="tall" data-label="frutal"><ellipse cx="18.4" cy="96.25" rx="1.98" ry="1.98" fill="#000000" opacity="0.16"/><path d="M16.74,96 L17.28,94.92 L17.28,91.5 L18.72,91.5 L18.72,94.92 L19.26,96 Z" fill="#5a4228"/><rect x="18.09" y="91.5" width="0.63" height="4.32" fill="#48351f"/></g><g data-vid="frutal_2" data-part="canopy" opacity="0.65" data-label="frutal"><circle cx="18" cy="89.16" r="4.68" fill="#3a5624"/><circle cx="14.94" cy="90.42" r="3.24" fill="#3a5624"/><circle cx="21.06" cy="90.24" r="3.33" fill="#3a5624"/><circle cx="16.38" cy="86.82" r="3.06" fill="#3a5624"/><circle cx="19.8" cy="87" r="2.88" fill="#3a5624"/><path d="M13.86,91.14 Q18,94.02 22.14,90.96 Q18,92.22 13.86,91.14 Z" fill="#2e451c"/><circle cx="15.84" cy="87.18" r="2.34" fill="#4c7030"/><circle cx="18.72" cy="86.28" r="1.98" fill="#4c7030"/><circle cx="17.64" cy="88.62" r="1.62" fill="#4c7030"/></g><g data-vid="tapia_huerto_n" data-part="tall" data-label="tapia"><polygon points="35,88 35,98 35.3,98.8 35.3,88.8" fill="#000000" opacity="0.14"/><polygon points="33.6,84 33.6,94 35,98 35,88" fill="#5f5a50"/><line x1="34.46" y1="93.5" x2="33.9" y2="91.9" stroke="#514c43" stroke-width="0.22"/><line x1="34.52" y1="87.46" x2="33.96" y2="85.86" stroke="#514c43" stroke-width="0.22"/><line x1="34.3" y1="86" x2="34.3" y2="96" stroke="#514c43" stroke-width="0.22"/><polygon points="31.6,84 31.6,94 33.6,94 33.6,84" fill="#8b8678"/><polygon points="32.97,83.2 32.97,85.4 33.6,87.2 33.6,85" fill="#96917f"/><polygon points="32.97,87.6 32.97,89.8 33.6,91.6 33.6,89.4" fill="#96917f"/></g><g data-vid="frutal_1" data-part="tall" data-label="frutal"><ellipse cx="8.4" cy="100.25" rx="1.98" ry="1.98" fill="#000000" opacity="0.16"/><path d="M6.74,100 L7.28,98.92 L7.28,95.5 L8.72,95.5 L8.72,98.92 L9.26,100 Z" fill="#5a4228"/><rect x="8.09" y="95.5" width="0.63" height="4.32" fill="#48351f"/></g><g data-vid="frutal_1" data-part="canopy" opacity="0.65" data-label="frutal"><circle cx="8" cy="93.16" r="4.68" fill="#3a5624"/><circle cx="4.94" cy="94.42" r="3.24" fill="#3a5624"/><circle cx="11.06" cy="94.24" r="3.33" fill="#3a5624"/><circle cx="6.38" cy="90.82" r="3.06" fill="#3a5624"/><circle cx="9.8" cy="91" r="2.88" fill="#3a5624"/><path d="M3.86,95.14 Q8,98.02 12.14,94.96 Q8,96.22 3.86,95.14 Z" fill="#2e451c"/><circle cx="5.84" cy="91.18" r="2.34" fill="#4c7030"/><circle cx="8.72" cy="90.28" r="1.98" fill="#4c7030"/><circle cx="7.64" cy="92.62" r="1.62" fill="#4c7030"/></g><g data-vid="muralla_adarve" data-part="tall" data-label="muralla"><polygon points="104,89.6 104,102.4 104.3,103.2 104.3,90.4" fill="#000000" opacity="0.14"/><polygon points="100.85,80.6 100.85,93.4 104,102.4 104,89.6" fill="#5f5a50"/><line x1="101.74" y1="92.9" x2="101.18" y2="91.3" stroke="#514c43" stroke-width="0.22"/><line x1="102.38" y1="91.02" x2="101.82" y2="89.42" stroke="#514c43" stroke-width="0.22"/><line x1="102.42" y1="85.1" x2="102.42" y2="97.9" stroke="#514c43" stroke-width="0.22"/><polygon points="96.85,80.6 96.85,93.4 100.85,93.4 100.85,80.6" fill="#8b8678"/><polygon points="100.22,79.8 100.22,82 100.85,83.8 100.85,81.6" fill="#96917f"/><polygon points="100.22,84.2 100.22,86.4 100.85,88.2 100.85,86" fill="#96917f"/></g><g data-vid="frutal_3" data-part="tall" data-label="frutal"><ellipse cx="26.4" cy="108.25" rx="1.98" ry="1.98" fill="#000000" opacity="0.16"/><path d="M24.74,108 L25.28,106.92 L25.28,103.5 L26.72,103.5 L26.72,106.92 L27.26,108 Z" fill="#5a4228"/><rect x="26.09" y="103.5" width="0.63" height="4.32" fill="#48351f"/></g><g data-vid="frutal_3" data-part="canopy" opacity="0.65" data-label="frutal"><circle cx="26" cy="101.16" r="4.68" fill="#3a5624"/><circle cx="22.94" cy="102.42" r="3.24" fill="#3a5624"/><circle cx="29.06" cy="102.24" r="3.33" fill="#3a5624"/><circle cx="24.38" cy="98.82" r="3.06" fill="#3a5624"/><circle cx="27.8" cy="99" r="2.88" fill="#3a5624"/><path d="M21.86,103.14 Q26,106.02 30.14,102.96 Q26,104.22 21.86,103.14 Z" fill="#2e451c"/><circle cx="23.84" cy="99.18" r="2.34" fill="#4c7030"/><circle cx="26.72" cy="98.28" r="1.98" fill="#4c7030"/><circle cx="25.64" cy="100.62" r="1.62" fill="#4c7030"/></g><g data-vid="frutal_4" data-part="tall" data-label="frutal"><ellipse cx="10.4" cy="116.25" rx="1.98" ry="1.98" fill="#000000" opacity="0.16"/><path d="M8.74,116 L9.28,114.92 L9.28,111.5 L10.72,111.5 L10.72,114.92 L11.26,116 Z" fill="#5a4228"/><rect x="10.09" y="111.5" width="0.63" height="4.32" fill="#48351f"/></g><g data-vid="frutal_4" data-part="canopy" opacity="0.65" data-label="frutal"><circle cx="10" cy="109.16" r="4.68" fill="#3a5624"/><circle cx="6.94" cy="110.42" r="3.24" fill="#3a5624"/><circle cx="13.06" cy="110.24" r="3.33" fill="#3a5624"/><circle cx="8.38" cy="106.82" r="3.06" fill="#3a5624"/><circle cx="11.8" cy="107" r="2.88" fill="#3a5624"/><path d="M5.86,111.14 Q10,114.02 14.14,110.96 Q10,112.22 5.86,111.14 Z" fill="#2e451c"/><circle cx="7.84" cy="107.18" r="2.34" fill="#4c7030"/><circle cx="10.72" cy="106.28" r="1.98" fill="#4c7030"/><circle cx="9.64" cy="108.62" r="1.62" fill="#4c7030"/></g><g data-vid="muralla_adarve" data-part="tall" data-label="muralla"><polygon points="104,102.4 104,115.2 104.3,116 104.3,103.2" fill="#000000" opacity="0.14"/><polygon points="100.85,93.4 100.85,106.2 104,115.2 104,102.4" fill="#5f5a50"/><line x1="102.02" y1="106.07" x2="101.46" y2="104.47" stroke="#514c43" stroke-width="0.22"/><line x1="102.05" y1="105.32" x2="101.49" y2="103.72" stroke="#514c43" stroke-width="0.22"/><line x1="102.42" y1="97.9" x2="102.42" y2="110.7" stroke="#514c43" stroke-width="0.22"/><polygon points="96.85,93.4 96.85,106.2 100.85,106.2 100.85,93.4" fill="#8b8678"/><polygon points="100.22,92.6 100.22,94.8 100.85,96.6 100.85,94.4" fill="#96917f"/><polygon points="100.22,97 100.22,99.2 100.85,101 100.85,98.8" fill="#96917f"/></g><g data-vid="tapia_huerto_s" data-part="tall" data-label="tapia"><polygon points="35,106 35,117 35.3,117.8 35.3,106.8" fill="#000000" opacity="0.14"/><polygon points="33.6,102 33.6,113 35,117 35,106" fill="#5f5a50"/><line x1="34.79" y1="109.68" x2="34.23" y2="108.08" stroke="#514c43" stroke-width="0.22"/><line x1="34.34" y1="109.68" x2="33.78" y2="108.08" stroke="#514c43" stroke-width="0.22"/><line x1="34.3" y1="104" x2="34.3" y2="115" stroke="#514c43" stroke-width="0.22"/><polygon points="31.6,102 31.6,113 33.6,113 33.6,102" fill="#8b8678"/><polygon points="32.97,101.2 32.97,103.4 33.6,105.2 33.6,103" fill="#96917f"/><polygon points="32.97,105.6 32.97,107.8 33.6,109.6 33.6,107.4" fill="#96917f"/></g><g data-vid="frutal_5" data-part="tall" data-label="frutal"><ellipse cx="22.4" cy="120.25" rx="1.98" ry="1.98" fill="#000000" opacity="0.16"/><path d="M20.74,120 L21.28,118.92 L21.28,115.5 L22.72,115.5 L22.72,118.92 L23.26,120 Z" fill="#5a4228"/><rect x="22.09" y="115.5" width="0.63" height="4.32" fill="#48351f"/></g><g data-vid="frutal_5" data-part="canopy" opacity="0.65" data-label="frutal"><circle cx="22" cy="113.16" r="4.68" fill="#3a5624"/><circle cx="18.94" cy="114.42" r="3.24" fill="#3a5624"/><circle cx="25.06" cy="114.24" r="3.33" fill="#3a5624"/><circle cx="20.38" cy="110.82" r="3.06" fill="#3a5624"/><circle cx="23.8" cy="111" r="2.88" fill="#3a5624"/><path d="M17.86,115.14 Q22,118.02 26.14,114.96 Q22,116.22 17.86,115.14 Z" fill="#2e451c"/><circle cx="19.84" cy="111.18" r="2.34" fill="#4c7030"/><circle cx="22.72" cy="110.28" r="1.98" fill="#4c7030"/><circle cx="21.64" cy="112.62" r="1.62" fill="#4c7030"/></g><g data-vid="tapia_huerto_s" data-part="tall" data-label="tapia"><polygon points="35,117 35,128 35.3,128.8 35.3,117.8" fill="#000000" opacity="0.14"/><polygon points="33.6,113 33.6,124 35,128 35,117" fill="#5f5a50"/><line x1="34.34" y1="120.24" x2="33.78" y2="118.64" stroke="#514c43" stroke-width="0.22"/><line x1="34.74" y1="120.94" x2="34.18" y2="119.34" stroke="#514c43" stroke-width="0.22"/><line x1="34.3" y1="115" x2="34.3" y2="126" stroke="#514c43" stroke-width="0.22"/><polygon points="31.6,113 31.6,124 33.6,124 33.6,113" fill="#8b8678"/><polygon points="32.97,112.2 32.97,114.4 33.6,116.2 33.6,114" fill="#96917f"/><polygon points="32.97,116.6 32.97,118.8 33.6,120.6 33.6,118.4" fill="#96917f"/></g><g data-vid="muralla_adarve" data-part="tall" data-label="muralla"><polygon points="104,115.2 104,128 104.3,128.8 104.3,116" fill="#000000" opacity="0.14"/><polygon points="100.85,106.2 100.85,119 104,128 104,115.2" fill="#5f5a50"/><line x1="101.87" y1="111.8" x2="101.31" y2="110.2" stroke="#514c43" stroke-width="0.22"/><line x1="102.86" y1="120.63" x2="102.3" y2="119.03" stroke="#514c43" stroke-width="0.22"/><line x1="102.42" y1="110.7" x2="102.42" y2="123.5" stroke="#514c43" stroke-width="0.22"/><polygon points="96.85,106.2 96.85,119 100.85,119 100.85,106.2" fill="#8b8678"/><polygon points="100.22,105.4 100.22,107.6 100.85,109.4 100.85,107.2" fill="#96917f"/><polygon points="100.22,109.8 100.22,112 100.85,113.8 100.85,111.6" fill="#96917f"/></g></g></svg>