<svg viewBox="-12 -32 140 160" xmlns="http://www.w3.org/2000/svg"><defs><clipPath id="tileclip"><rect x="0" y="0" width="128" height="128"/></clipPath></defs><g id="ground" clip-path="url(#tileclip)"><rect x="0" y="0" width="128" height="128" fill="#8f7a52"/><ellipse cx="17.78" cy="35.94" rx="8.43" ry="5.45" fill="#998662" opacity="0.38"/><ellipse cx="113.27" cy="14.67" rx="9.81" ry="6.66" fill="#7c6a47" opacity="0.32"/><ellipse cx="106.38" cy="98.22" rx="10.08" ry="6.66" fill="#998662" opacity="0.33"/><ellipse cx="87.4" cy="73.62" rx="12.25" ry="8.89" fill="#7c6a47" opacity="0.39"/><ellipse cx="29.22" cy="89.8" rx="11.63" ry="7.32" fill="#998662" opacity="0.35"/><ellipse cx="116.65" cy="99.62" rx="12.95" ry="8.58" fill="#7c6a47" opacity="0.35"/><ellipse cx="30.04" cy="113.61" rx="13.07" ry="8.24" fill="#998662" opacity="0.45"/><ellipse cx="17.51" cy="9.85" rx="9.42" ry="7.3" fill="#7c6a47" opacity="0.36"/><ellipse cx="11.17" cy="43.66" rx="8.65" ry="5.36" fill="#998662" opacity="0.37"/><ellipse cx="57.84" cy="66.99" rx="10.82" ry="6.39" fill="#7c6a47" opacity="0.44"/><ellipse cx="69.12" cy="30.65" rx="1.16" ry="0.81" fill="#8f887a" opacity="0.75"/><ellipse cx="77.06" cy="4.61" rx="0.71" ry="0.5" fill="#7d7869" opacity="0.75"/><ellipse cx="117.4" cy="76.25" rx="0.99" ry="0.69" fill="#8f887a" opacity="0.75"/><ellipse cx="93.95" cy="39.82" rx="1.16" ry="0.81" fill="#7d7869" opacity="0.75"/><ellipse cx="120.17" cy="116.77" rx="1.03" ry="0.72" fill="#8f887a" opacity="0.75"/><ellipse cx="81.88" cy="86.93" rx="1.15" ry="0.81" fill="#7d7869" opacity="0.75"/><g id="ground"><ellipse cx="64" cy="58" rx="17" ry="11" fill="#a29b8b"/><ellipse cx="56" cy="54" rx="2.2" ry="1.4" fill="#8f887a" opacity="0.8"/><ellipse cx="70" cy="55" rx="2.5" ry="1.5" fill="#b0a999" opacity="0.8"/><ellipse cx="60" cy="62" rx="2.1" ry="1.3" fill="#8f887a" opacity="0.8"/><ellipse cx="72" cy="61" rx="2.4" ry="1.5" fill="#b0a999" opacity="0.8"/><ellipse cx="66" cy="66" rx="2.2" ry="1.3" fill="#8f887a" opacity="0.8"/><ellipse cx="54" cy="60" rx="1.8" ry="1.2" fill="#b0a999" opacity="0.8"/><ellipse cx="76" cy="58" rx="2.0" ry="1.3" fill="#8f887a" opacity="0.8"/><ellipse cx="62" cy="68" rx="1.9" ry="1.2" fill="#b0a999" opacity="0.8"/><path d="M0,62 C30,63 48,64 64,64 S100,64 128,64" fill="none" stroke="#8f8878" stroke-width="7" stroke-linecap="round"/><path d="M0,62 C30,63 48,64 64,64 S100,64 128,64" fill="none" stroke="#a8a191" stroke-width="5.2" stroke-linecap="round"/><path d="M60,56 C58,42 56,14 54,0" fill="none" stroke="#8a7650" stroke-width="3.2" stroke-linecap="round" opacity="0.9"/><path d="M60,56 C58,42 56,14 54,0" fill="none" stroke="#a89162" stroke-width="2.2" stroke-linecap="round"/><path d="M66,66 C68,90 70,110 72,128" fill="none" stroke="#8a7650" stroke-width="3.2" stroke-linecap="round" opacity="0.9"/><path d="M66,66 C68,90 70,110 72,128" fill="none" stroke="#a89162" stroke-width="2.2" stroke-linecap="round"/><rect x="41" y="41" width="14" height="10" fill="#7c5a36"/><line x1="41" y1="44" x2="55" y2="44" stroke="#5f4426" stroke-width="0.4"/><line x1="41" y1="47" x2="55" y2="47" stroke="#5f4426" stroke-width="0.4"/><line x1="41" y1="50" x2="55" y2="50" stroke="#5f4426" stroke-width="0.4"/><ellipse cx="48" cy="53" rx="5" ry="2.5" fill="#8a7650" opacity="0.55"/><ellipse cx="62" cy="72" rx="4.5" ry="2" fill="#8a7650" opacity="0.55"/><rect x="1" y="90" width="32" height="37" fill="#6d5a3a" opacity="0.85"/><line x1="3" y1="96" x2="31" y2="96" stroke="#48682f" stroke-width="1.2" opacity="0.5"/><line x1="3" y1="103" x2="31" y2="103" stroke="#48682f" stroke-width="1.2" opacity="0.5"/><line x1="3" y1="110" x2="31" y2="110" stroke="#48682f" stroke-width="1.2" opacity="0.5"/><line x1="3" y1="117" x2="31" y2="117" stroke="#48682f" stroke-width="1.2" opacity="0.5"/><line x1="3" y1="124" x2="31" y2="124" stroke="#48682f" stroke-width="1.2" opacity="0.5"/></g><g id="water"/></g><g id="volumes"></g></svg>